<svg width="45" height="36" viewBox="0 0 45 36" fill="none" xmlns="http://www.w3.org/2000/svg">
<g clip-path="url(#clip0_34_1544)">
<path d="M21.4383 0.0492318C20.7633 -0.140612 20.0672 0.246107 19.8704 0.921107L19.568 1.98986C18.9844 1.94767 18.3868 1.98986 17.7961 2.12345C17.2829 2.24298 16.7907 2.36954 16.3125 2.51017L15.9258 1.6172C15.6516 0.977357 14.9063 0.675013 14.2665 0.949232C13.6266 1.22345 13.3243 1.96876 13.5985 2.60861L13.9079 3.33986C12.7407 3.81095 11.679 4.35236 10.7157 4.94298L10.336 4.35939C9.94927 3.77579 9.16177 3.62111 8.57817 4.00783C7.99458 4.39454 7.83989 5.18204 8.22661 5.76564L8.64849 6.39845C7.68521 7.17189 6.85552 8.00158 6.1313 8.85236L5.42817 8.28986C4.87974 7.85392 4.08521 7.93829 3.64927 8.48673C3.21333 9.03517 3.29771 9.8297 3.84614 10.2656L4.63364 10.8985C4.50708 11.0953 4.38755 11.2992 4.27505 11.4961C3.81099 12.2977 3.44536 13.0852 3.15005 13.8164L2.58755 13.5914C1.94067 13.3313 1.20239 13.6477 0.942236 14.2945C0.68208 14.9414 0.998486 15.6797 1.64536 15.9399L2.37661 16.2352C2.36255 16.2914 2.34849 16.3406 2.34145 16.3969C2.18677 17.0508 2.10239 17.6133 2.05317 18.0422C2.02505 18.2602 2.01099 18.443 1.99692 18.5906C1.98989 18.668 1.98989 18.7313 1.98286 18.7875L1.97583 18.8649V18.9V18.9141V18.9211C1.97583 18.9211 1.97583 18.9281 4.02192 18.9914H4.01489L1.9688 18.9352C1.96177 19.1531 1.9688 19.3641 1.98286 19.575L0.914111 19.8774C0.246143 20.0672 -0.140576 20.7703 0.0492676 21.4383C0.239111 22.1063 0.942236 22.5 1.61724 22.3102L2.71411 21.9938C3.24849 22.95 4.04302 23.7516 5.0063 24.2859L4.68989 25.3828C4.50005 26.0578 4.88677 26.7539 5.56177 26.9508C6.23677 27.1477 6.93286 26.7539 7.12974 26.0789L7.43208 25.0102C7.51646 25.0172 7.60083 25.0242 7.68521 25.0242C8.78208 25.0594 9.81567 24.7922 10.7086 24.307L11.3415 24.9399C11.8336 25.432 12.6352 25.432 13.1344 24.9399C13.6336 24.4477 13.6266 23.6461 13.1344 23.1469L12.6282 22.6406C13.2821 21.7547 13.6969 20.686 13.7743 19.5117L14.2735 19.7227C14.9133 19.9969 15.6586 19.7016 15.9329 19.0547C16.2071 18.4078 15.9118 17.6695 15.2649 17.3953L14.6602 17.1352C15.1102 16.4391 15.8766 15.5602 17.2547 14.7938L17.3461 15.1031C17.536 15.7781 18.2391 16.1649 18.9141 15.975C19.5891 15.7852 19.9758 15.082 19.786 14.407L19.6243 13.8375C19.8915 13.7602 20.1657 13.6899 20.461 13.6195C21.2766 13.4297 22.0149 13.0781 22.6477 12.607L23.154 13.1133C23.6461 13.6055 24.4477 13.6055 24.9469 13.1133C25.4461 12.6211 25.4391 11.8195 24.9469 11.3203L24.3141 10.6875C24.8485 9.71017 25.1086 8.57111 25.0243 7.41095L26.093 7.10861C26.768 6.91876 27.1547 6.21564 26.9649 5.54064C26.775 4.86564 26.0579 4.50001 25.3829 4.68986L24.286 5.00626C23.7446 4.02892 22.943 3.24142 21.9938 2.71408L22.3102 1.6172C22.5 0.9422 22.1133 0.246107 21.4383 0.0492318ZM7.87505 19.125L4.50005 19.0195C5.3227 19.0477 6.41958 19.0828 7.87505 19.132V19.125ZM9.00005 13.5C9.59679 13.5 10.1691 13.7371 10.591 14.159C11.013 14.581 11.25 15.1533 11.25 15.75C11.25 16.3468 11.013 16.919 10.591 17.341C10.1691 17.763 9.59679 18 9.00005 18C8.40331 18 7.83102 17.763 7.40906 17.341C6.9871 16.919 6.75005 16.3468 6.75005 15.75C6.75005 15.1533 6.9871 14.581 7.40906 14.159C7.83102 13.7371 8.40331 13.5 9.00005 13.5ZM13.5 10.125C13.5 9.82664 13.6186 9.5405 13.8296 9.32952C14.0405 9.11854 14.3267 9.00001 14.625 9.00001C14.9234 9.00001 15.2096 9.11854 15.4205 9.32952C15.6315 9.5405 15.75 9.82664 15.75 10.125C15.75 10.4234 15.6315 10.7095 15.4205 10.9205C15.2096 11.1315 14.9234 11.25 14.625 11.25C14.3267 11.25 14.0405 11.1315 13.8296 10.9205C13.6186 10.7095 13.5 10.4234 13.5 10.125ZM22.6899 34.3828C22.5 35.0578 22.8868 35.7539 23.5618 35.9508C24.2368 36.1477 24.9329 35.7539 25.1227 35.0789L25.4251 34.0102C26.0086 34.0524 26.6063 34.0102 27.1969 33.8766C27.7102 33.757 28.2024 33.6305 28.6805 33.4899L29.0672 34.3828C29.3415 35.0227 30.0868 35.325 30.7266 35.0508C31.3665 34.7766 31.6688 34.0313 31.3946 33.3914L31.0852 32.6602C32.2524 32.1891 33.3141 31.6477 34.2774 31.057L34.6641 31.6406C35.0508 32.2242 35.8383 32.3789 36.4219 31.9922C37.0055 31.6055 37.1602 30.818 36.7735 30.2344L36.3516 29.6016C37.3149 28.8281 38.1446 27.9985 38.8688 27.1477L39.5719 27.7102C40.1204 28.1461 40.9149 28.0617 41.3508 27.5133C41.7868 26.9649 41.7024 26.1703 41.154 25.7344L40.3665 25.1016C40.493 24.9047 40.6125 24.7008 40.7251 24.5039C41.1891 23.7024 41.5547 22.9149 41.8501 22.1836L42.4126 22.4086C43.0594 22.6688 43.7977 22.3524 44.0579 21.7055C44.318 21.0586 44.0016 20.3203 43.3547 20.0602L42.6235 19.7649C42.6376 19.7086 42.6516 19.6594 42.6586 19.6031C42.8133 18.9492 42.8977 18.3867 42.9469 17.9578C42.975 17.7399 42.9891 17.557 43.0032 17.4094C43.0102 17.332 43.0102 17.2688 43.0172 17.2125L43.0243 17.1352V17.1V17.086V17.0789C43.0243 17.0789 43.0243 17.0719 40.9782 17.0086H40.9852L43.0313 17.0719C43.0383 16.8539 43.0313 16.643 43.0172 16.432L44.086 16.1297C44.761 15.9399 45.1477 15.2367 44.9579 14.5617C44.768 13.8867 44.0649 13.5 43.3899 13.6899L42.293 14.0063C41.7586 13.05 40.9641 12.2485 40.0008 11.7141L40.3172 10.6172C40.5071 9.9422 40.1204 9.24611 39.4454 9.04923C38.7704 8.85236 38.0743 9.24611 37.8774 9.92111L37.5751 10.9899C37.4907 10.9828 37.4063 10.9758 37.3219 10.9758C36.225 10.9406 35.1915 11.2078 34.2985 11.693L33.6657 11.0602C33.1735 10.568 32.3719 10.568 31.8727 11.0602C31.3735 11.5524 31.3805 12.3539 31.8727 12.8531L32.379 13.3594C31.725 14.2453 31.3102 15.3141 31.2329 16.4883L30.7336 16.2774C30.0938 16.0031 29.3485 16.2985 29.0743 16.9453C28.8 17.5922 29.0954 18.3305 29.7422 18.6047L30.3469 18.8649C29.8969 19.5609 29.1305 20.4399 27.7524 21.2063L27.661 20.8969C27.4711 20.2219 26.768 19.8352 26.093 20.025C25.418 20.2149 25.0313 20.918 25.2211 21.593L25.3829 22.1625C25.1157 22.2399 24.8415 22.3102 24.5461 22.3805C23.7305 22.5703 22.9922 22.9219 22.3594 23.393L21.8532 22.8867C21.361 22.3945 20.5594 22.3945 20.0602 22.8867C19.561 23.3789 19.568 24.1805 20.0602 24.6797L20.693 25.3125C20.1586 26.2899 19.8985 27.4289 19.9829 28.5891L18.9141 28.8914C18.2391 29.0813 17.8524 29.7844 18.0422 30.4524C18.2321 31.1203 18.9352 31.5141 19.6102 31.3242L20.7071 31.0078C21.2485 31.9852 22.0501 32.7727 22.9993 33.3L22.6899 34.3828ZM40.5 16.9805C39.6774 16.9524 38.5805 16.9172 37.125 16.868L40.5 16.9734V16.9805ZM31.5 27C31.5 27.5968 31.263 28.169 30.841 28.591C30.4191 29.013 29.8468 29.25 29.25 29.25C28.6533 29.25 28.081 29.013 27.6591 28.591C27.2371 28.169 27 27.5968 27 27C27 26.4033 27.2371 25.831 27.6591 25.409C28.081 24.9871 28.6533 24.75 29.25 24.75C29.8468 24.75 30.4191 24.9871 30.841 25.409C31.263 25.831 31.5 26.4033 31.5 27Z" fill="white"/>
</g>
<defs>
<clipPath id="clip0_34_1544">
<path d="M0 0H45V36H0V0Z" fill="white"/>
</clipPath>
</defs>
</svg>
