<svg width="25" height="18" viewBox="0 0 25 18" fill="none" xmlns="http://www.w3.org/2000/svg">
<path d="M12.5001 0C12.1837 0 11.8712 0.0546874 11.5743 0.160156L0.617301 4.11719C0.246207 4.25391 0.000112979 4.60547 0.000112979 5C0.000112979 5.39453 0.246207 5.74609 0.617301 5.88281L2.87902 6.69922C2.23839 7.70703 1.87511 8.89844 1.87511 10.1523V11.25C1.87511 12.3594 1.45324 13.5039 1.00402 14.4062C0.750113 14.9141 0.461051 15.4141 0.125113 15.875C0.000112981 16.043 -0.0350433 16.2617 0.0352692 16.4609C0.105582 16.6602 0.269644 16.8086 0.472769 16.8594L2.97277 17.4844C3.13683 17.5273 3.31261 17.4961 3.45714 17.4062C3.60168 17.3164 3.70324 17.168 3.73449 17C4.07043 15.3281 3.90246 13.8281 3.65246 12.7539C3.52746 12.1992 3.35949 11.6328 3.12511 11.1133V10.1523C3.12511 8.97266 3.52355 7.85937 4.21496 6.96875C4.71886 6.36328 5.37121 5.875 6.13683 5.57422L12.2696 3.16406C12.59 3.03906 12.9532 3.19531 13.0782 3.51562C13.2032 3.83594 13.047 4.19922 12.7267 4.32422L6.59386 6.73438C6.10949 6.92578 5.68371 7.21875 5.33605 7.57812L11.5704 9.82812C11.8673 9.93359 12.1798 9.98828 12.4962 9.98828C12.8126 9.98828 13.1251 9.93359 13.422 9.82812L24.3829 5.88281C24.754 5.75 25.0001 5.39453 25.0001 5C25.0001 4.60547 24.754 4.25391 24.3829 4.11719L13.4259 0.160156C13.129 0.0546874 12.8165 0 12.5001 0ZM5.00011 14.6875C5.00011 16.0664 8.35949 17.5 12.5001 17.5C16.6407 17.5 20.0001 16.0664 20.0001 14.6875L19.4025 9.00781L13.8478 11.0156C13.4142 11.1719 12.9571 11.25 12.5001 11.25C12.0431 11.25 11.5821 11.1719 11.1525 11.0156L5.59777 9.00781L5.00011 14.6875Z" fill="white"/>
</svg>
