<svg width="24" height="24" viewBox="0 0 24 24" fill="none" xmlns="http://www.w3.org/2000/svg">
<path d="M19.8328 1.43443C20.0016 0.839117 19.6594 0.215679 19.0594 0.0422419C18.4594 -0.131196 17.8406 0.215679 17.6672 0.815679L17.4703 1.50474C17.0109 1.48599 16.5375 1.52818 16.0687 1.63599C15.5016 1.76724 14.9578 1.91255 14.4328 2.07662L14.1562 1.43443C13.9125 0.862554 13.2516 0.600054 12.6797 0.843804C12.1078 1.08755 11.8453 1.74849 12.0891 2.32037L12.3187 2.85005C11.2875 3.29068 10.35 3.79224 9.49687 4.34068L9.1875 3.87662C8.84062 3.36099 8.14218 3.22037 7.62656 3.56255C7.11093 3.90474 6.97031 4.60787 7.3125 5.12349L7.67812 5.66724C6.83437 6.37037 6.09843 7.11099 5.46093 7.87505L4.82812 7.37349C4.34062 6.98443 3.63281 7.06412 3.24843 7.54693C2.86406 8.02974 2.93906 8.74224 3.42187 9.12662L4.125 9.68912C4.02656 9.83912 3.93281 9.9938 3.84375 10.1438C3.40312 10.8797 3.04687 11.5969 2.75625 12.2672L2.29218 12.0844C1.71562 11.8547 1.05937 12.136 0.829684 12.7126C0.599997 13.2891 0.881247 13.9454 1.45781 14.1751L2.00156 14.3907C1.9875 14.4422 1.97343 14.4891 1.95937 14.536C1.79531 15.1219 1.69218 15.6235 1.62656 16.0032C1.59375 16.1954 1.57031 16.3547 1.55156 16.486C1.54218 16.5516 1.5375 16.6079 1.53281 16.6547L1.52812 16.7204L1.52343 16.7485V16.7626V16.7672C1.52343 16.7672 1.52343 16.7719 3.36093 16.9407L1.52343 16.7719C1.5 17.0063 1.49531 17.2407 1.50468 17.4704L0.815622 17.6672C0.220309 17.8407 -0.126566 18.4594 0.0421844 19.0594C0.210934 19.6594 0.834372 20.0016 1.43437 19.8329L2.08125 19.6501C2.57812 20.6204 3.375 21.4219 4.35468 21.9235L4.17187 22.5657C4.00312 23.161 4.34531 23.7844 4.94531 23.9579C5.54531 24.1313 6.16406 23.7844 6.3375 23.1844L6.53437 22.4954C7.65 22.5422 8.70468 22.2376 9.58593 21.6704L10.0781 22.1719C10.5187 22.6126 11.2312 22.6126 11.6672 22.1719C12.1031 21.7313 12.1078 21.0188 11.6672 20.5829L11.1703 20.086C11.5969 19.4251 11.8781 18.6563 11.9672 17.8219L11.9719 17.7844C11.9859 17.7047 12.0187 17.5454 12.0797 17.3251L12.0891 17.2876L12.6797 17.5407C13.2516 17.7844 13.9125 17.5219 14.1562 16.9501C14.4 16.3782 14.1375 15.7172 13.5656 15.4735L13.0359 15.2485C13.5 14.5501 14.2031 13.7672 15.3141 13.0922L15.4125 13.4438C15.5812 14.0391 16.2047 14.386 16.8047 14.2172C17.4047 14.0485 17.7469 13.4251 17.5781 12.8251L17.3906 12.1501C17.7141 12.0469 18.0609 11.9485 18.4312 11.8641C19.0359 11.7235 19.5891 11.4891 20.0812 11.1704L20.5781 11.6719C21.0187 12.1126 21.7312 12.1126 22.1672 11.6719C22.6031 11.2313 22.6078 10.5188 22.1672 10.0829L21.6703 9.58599C22.2422 8.69537 22.5422 7.63599 22.4953 6.53443L23.1844 6.33755C23.7797 6.1688 24.1266 5.54537 23.9578 4.94537C23.7891 4.34537 23.1656 4.00318 22.5656 4.17193L21.9234 4.35474C21.4172 3.36099 20.6109 2.57349 19.65 2.0813L19.8328 1.43443ZM5.25 15.0001C5.25 14.4033 5.48705 13.831 5.90901 13.4091C6.33096 12.9871 6.90326 12.7501 7.5 12.7501C8.09673 12.7501 8.66903 12.9871 9.09099 13.4091C9.51294 13.831 9.75 14.4033 9.75 15.0001C9.75 15.5968 9.51294 16.1691 9.09099 16.591C8.66903 17.013 8.09673 17.2501 7.5 17.2501C6.90326 17.2501 6.33096 17.013 5.90901 16.591C5.48705 16.1691 5.25 15.5968 5.25 15.0001ZM11.25 8.62505C11.5484 8.62505 11.8345 8.74358 12.0455 8.95456C12.2565 9.16554 12.375 9.45169 12.375 9.75005C12.375 10.0484 12.2565 10.3346 12.0455 10.5455C11.8345 10.7565 11.5484 10.8751 11.25 10.8751C10.9516 10.8751 10.6655 10.7565 10.4545 10.5455C10.2435 10.3346 10.125 10.0484 10.125 9.75005C10.125 9.45169 10.2435 9.16554 10.4545 8.95456C10.6655 8.74358 10.9516 8.62505 11.25 8.62505Z" fill="white"/>
</svg>
