<svg width="45" height="27" viewBox="0 0 45 27" fill="none" xmlns="http://www.w3.org/2000/svg">
<path d="M22.7391 1.49062L15.9328 7.00313C14.8008 7.91719 14.5828 9.5625 15.4406 10.7367C16.3477 11.9883 18.1125 12.2344 19.3289 11.2852L26.3109 5.85703C26.8031 5.47734 27.5063 5.56172 27.893 6.05391C28.2797 6.54609 28.1883 7.24922 27.6961 7.63594L26.2266 8.775L36 17.775V4.5H35.9508L35.6766 4.32422L30.5719 1.05469C29.4961 0.365625 28.2375 0 26.9578 0C25.425 0 23.9344 0.527344 22.7391 1.49062ZM24.3422 10.2375L20.707 13.0641C18.4922 14.7938 15.2789 14.3438 13.6195 12.0656C12.0586 9.92109 12.4523 6.92578 14.5125 5.25938L20.3625 0.527344C19.5469 0.182812 18.668 0.00703114 17.775 0.00703114C16.4531 -1.07568e-07 15.1664 0.39375 14.0625 1.125L9 4.5V20.25H10.9828L17.4094 26.1141C18.7875 27.3727 20.918 27.2742 22.1766 25.8961C22.5633 25.4672 22.8234 24.968 22.957 24.4477L24.1523 25.5445C25.5234 26.8031 27.6609 26.7117 28.9195 25.3406C29.2359 24.9961 29.468 24.5953 29.6156 24.1805C30.9797 25.0945 32.8359 24.9047 33.982 23.6531C35.2406 22.282 35.1492 20.1445 33.7781 18.8859L24.3422 10.2375ZM1.125 4.5C0.50625 4.5 0 5.00625 0 5.625V20.25C0 21.4945 1.00547 22.5 2.25 22.5H4.5C5.74453 22.5 6.75 21.4945 6.75 20.25V4.5H1.125ZM3.375 18C3.67337 18 3.95952 18.1185 4.1705 18.3295C4.38147 18.5405 4.5 18.8266 4.5 19.125C4.5 19.4234 4.38147 19.7095 4.1705 19.9205C3.95952 20.1315 3.67337 20.25 3.375 20.25C3.07663 20.25 2.79048 20.1315 2.5795 19.9205C2.36853 19.7095 2.25 19.4234 2.25 19.125C2.25 18.8266 2.36853 18.5405 2.5795 18.3295C2.79048 18.1185 3.07663 18 3.375 18ZM38.25 4.5V20.25C38.25 21.4945 39.2555 22.5 40.5 22.5H42.75C43.9945 22.5 45 21.4945 45 20.25V5.625C45 5.00625 44.4938 4.5 43.875 4.5H38.25ZM40.5 19.125C40.5 18.8266 40.6185 18.5405 40.8295 18.3295C41.0405 18.1185 41.3266 18 41.625 18C41.9234 18 42.2095 18.1185 42.4205 18.3295C42.6315 18.5405 42.75 18.8266 42.75 19.125C42.75 19.4234 42.6315 19.7095 42.4205 19.9205C42.2095 20.1315 41.9234 20.25 41.625 20.25C41.3266 20.25 41.0405 20.1315 40.8295 19.9205C40.6185 19.7095 40.5 19.4234 40.5 19.125Z" fill="white"/>
</svg>
