<svg width="24" height="24" viewBox="0 0 24 24" fill="none" xmlns="http://www.w3.org/2000/svg">
<path d="M8.18914 2.11406C9.00945 0.796875 10.4532 0 12.0001 0C13.5469 0 14.9907 0.796875 15.811 2.11406L17.6204 5.00625L18.886 4.275C19.2798 4.04531 19.7719 4.07812 20.1329 4.35469C20.4938 4.63125 20.6532 5.1 20.536 5.54062L19.4391 9.6375C19.2798 10.2375 18.661 10.5938 18.061 10.4344L13.9641 9.3375C13.5235 9.22031 13.2001 8.85 13.1391 8.4C13.0782 7.95 13.2985 7.50469 13.6923 7.27969L15.0235 6.51094L13.2657 3.70312C12.9938 3.26719 12.5157 3 12.0001 3C11.4844 3 11.0063 3.26719 10.7344 3.70312L9.91413 5.01562C9.48289 5.70937 8.57351 5.92969 7.87039 5.50781C7.1532 5.07656 6.92351 4.13906 7.36882 3.42656L8.18914 2.11406ZM20.1329 11.8078C20.836 11.3859 21.7454 11.6062 22.1766 12.3L23.3204 14.1328C23.761 14.8406 23.9954 15.6516 24.0048 16.4859C24.0188 18.975 22.0032 21.0047 19.5141 21.0047L15.0001 21V22.5C15.0001 22.9547 14.7282 23.3672 14.3063 23.5406C13.8844 23.7141 13.4016 23.6203 13.0782 23.2969L10.0782 20.2969C9.63757 19.8563 9.63757 19.1438 10.0782 18.7078L13.0782 15.7078C13.4016 15.3844 13.8844 15.2906 14.3063 15.4641C14.7282 15.6375 15.0001 16.05 15.0001 16.5047V18.0047H19.5094C20.3344 18.0047 21.0048 17.3297 21.0001 16.5047C21.0001 16.2281 20.9204 15.9562 20.7751 15.7219L19.6313 13.8891C19.186 13.1766 19.411 12.2391 20.1329 11.8078ZM3.04226 10.3547L1.68757 9.57187C1.29382 9.34219 1.07351 8.90156 1.13445 8.45156C1.19539 8.00156 1.51882 7.63125 1.95945 7.51406L6.05632 6.41719C6.65632 6.25781 7.27507 6.61406 7.43445 7.21406L8.53132 11.3062C8.64851 11.7469 8.48913 12.2109 8.1282 12.4922C7.76726 12.7734 7.27507 12.8016 6.88132 12.5719L5.63914 11.8547L3.22507 15.7172C3.07976 15.9516 3.00007 16.2234 3.00007 16.5C2.99539 17.325 3.6657 18 4.4907 18H6.00007C6.82976 18 7.50007 18.6703 7.50007 19.5C7.50007 20.3297 6.82976 21 6.00007 21H4.4907C2.00164 21 -0.0139894 18.975 7.31379e-05 16.4813C0.00476064 15.6469 0.239136 14.8359 0.684448 14.1281L3.04226 10.3547Z" fill="#194E20"/>
</svg>
