<svg width="36" height="36" viewBox="0 0 36 36" fill="none" xmlns="http://www.w3.org/2000/svg">
<g clip-path="url(#clip0_34_1557)">
<path d="M19.125 6.74992C13.5984 6.74992 8.92266 10.371 7.33359 15.3632C9.69609 14.1679 12.3609 13.4999 15.1875 13.4999H21.375C21.9937 13.4999 22.5 14.0062 22.5 14.6249C22.5 15.2437 21.9937 15.7499 21.375 15.7499H20.25H15.1875C14.0203 15.7499 12.8883 15.8835 11.7984 16.1296C9.97734 16.5445 8.28281 17.2827 6.77813 18.2882C2.69297 21.0093 0 25.657 0 30.9374V32.0624C0 32.9976 0.752344 33.7499 1.6875 33.7499C2.62266 33.7499 3.375 32.9976 3.375 32.0624V30.9374C3.375 27.5132 4.83047 24.4335 7.15781 22.2749C8.55 27.5835 13.3805 31.4999 19.125 31.4999H19.1953C28.4836 31.4507 36 22.296 36 11.0109C36 8.01555 35.4727 5.16789 34.5164 2.60148C34.3336 2.11633 33.6234 2.13742 33.3773 2.59445C32.0555 5.06945 29.4398 6.74992 26.4375 6.74992H19.125Z" fill="white"/>
</g>
<defs>
<clipPath id="clip0_34_1557">
<path d="M0 0H36V36H0V0Z" fill="white"/>
</clipPath>
</defs>
</svg>
