<svg width="32" height="36" viewBox="0 0 32 36" fill="none" xmlns="http://www.w3.org/2000/svg">
<path d="M20.25 0H11.25H9C7.75547 0 6.75 1.00547 6.75 2.25C6.75 3.49453 7.75547 4.5 9 4.5V13.8375C9 14.6672 8.76797 15.4898 8.33203 16.193L0.724219 28.5609C0.253125 29.3344 0 30.2133 0 31.1203C0 33.8133 2.18672 36 4.87969 36H26.6203C29.3133 36 31.5 33.8133 31.5 31.1203C31.5 30.2203 31.2469 29.3344 30.7758 28.5609L23.168 16.2C22.732 15.4898 22.5 14.6742 22.5 13.8445V4.5C23.7445 4.5 24.75 3.49453 24.75 2.25C24.75 1.00547 23.7445 0 22.5 0H20.25ZM13.5 13.8375V4.5H18V13.8375C18 15.5039 18.4641 17.1352 19.3359 18.5555L21.7617 22.5H9.73828L12.1641 18.5555C13.0359 17.1352 13.5 15.5039 13.5 13.8375Z" fill="#194E20"/>
</svg>
