<svg width="19" height="27" viewBox="0 0 19 27" fill="none" xmlns="http://www.w3.org/2000/svg">
<path d="M-4.42517e-05 1.875C-4.42517e-05 0.837891 0.837846 0 1.87496 0H5.62496H6.56246H16.875C17.9121 0 18.75 0.837891 18.75 1.875C18.75 2.91211 17.9121 3.75 16.875 3.75H13.582C14.1445 4.59375 14.5605 5.54297 14.7949 6.5625H16.875C17.9121 6.5625 18.75 7.40039 18.75 8.4375C18.75 9.47461 17.9121 10.3125 16.875 10.3125H14.789C14.0156 13.7285 11.1621 16.3594 7.62886 16.8105L16.0898 22.8516C16.9335 23.4551 17.1269 24.627 16.5234 25.4648C15.9199 26.3027 14.748 26.502 13.9101 25.8984L0.785112 16.5234C0.123003 16.0547 -0.158247 15.2051 0.0878464 14.4258C0.33394 13.6465 1.0605 13.125 1.87496 13.125H6.56246C8.48433 13.125 10.1367 11.9707 10.8574 10.3125H1.87496C0.837846 10.3125 -4.42517e-05 9.47461 -4.42517e-05 8.4375C-4.42517e-05 7.40039 0.837846 6.5625 1.87496 6.5625H10.8574C10.1367 4.9043 8.48433 3.75 6.56246 3.75H5.62496H1.87496C0.837846 3.75 -4.42517e-05 2.91211 -4.42517e-05 1.875Z" fill="white"/>
</svg>
