<svg width="16" height="14" viewBox="0 0 16 14" fill="none" xmlns="http://www.w3.org/2000/svg">
<path d="M7.13438 13.3422L1.4875 8.07028C1.35625 7.94841 1.23125 7.81716 1.11563 7.68278H3.83437C4.54063 7.68278 5.17812 7.25778 5.45 6.60466L5.77812 5.81716L7.31875 9.23903C7.4375 9.50466 7.69688 9.67653 7.9875 9.67966C8.27812 9.68279 8.54375 9.52341 8.675 9.26404L10 6.61091L10.0531 6.71716C10.35 7.31091 10.9562 7.68591 11.6187 7.68591H14.8844C14.7687 7.82028 14.6438 7.95154 14.5125 8.07341L8.86563 13.3422C8.63125 13.5609 8.32187 13.6828 8 13.6828C7.67812 13.6828 7.36875 13.5609 7.13438 13.3422ZM15.7406 6.18278H11.6156C11.5219 6.18278 11.4344 6.12966 11.3906 6.04528L10.6656 4.59841C10.5375 4.34528 10.2781 4.18278 9.99375 4.18278C9.70937 4.18278 9.45 4.34216 9.32187 4.59841L8.02812 7.18591L6.43437 3.62653C6.3125 3.35466 6.0375 3.17966 5.74062 3.18591C5.44375 3.19216 5.175 3.37028 5.05937 3.64841L4.06563 6.03278C4.02813 6.12653 3.93437 6.18591 3.83437 6.18591H0.5C0.41875 6.18591 0.34375 6.19841 0.271875 6.22028C0.09375 5.72028 0 5.18903 0 4.64841V4.46716C0 2.28278 1.57812 0.420285 3.73125 0.0609095C5.15625 -0.17659 6.60625 0.289035 7.625 1.30778L8 1.68278L8.375 1.30778C9.39375 0.289035 10.8438 -0.17659 12.2688 0.0609095C14.4219 0.420285 16 2.28278 16 4.46716V4.64841C16 5.17653 15.9125 5.69528 15.7406 6.18278Z" fill="#194E20"/>
</svg>
