<svg width="48" height="42" viewBox="0 0 48 42" fill="none" xmlns="http://www.w3.org/2000/svg">
<path d="M24 0C25.1719 0 26.2594 0.6 26.8875 1.59375L47.1937 33.975C47.7188 34.8094 48 35.775 48 36.7594C48 39.6562 45.6562 42 42.7594 42H5.24063C2.34375 42 0 39.6562 0 36.7594C0 35.775 0.28125 34.8094 0.80625 33.975L21.1125 1.59375C21.7312 0.6 22.8281 0 24 0ZM30.0938 18L24 8.2875L16.5844 20.1094L18.3 22.3969C18.9 23.1937 20.1 23.1937 20.7 22.3969L23.1 19.2C23.6625 18.4406 24.5531 18 25.5 18H30.0938Z" fill="white"/>
</svg>
