<svg width="21" height="30" viewBox="0 0 21 30" fill="none" xmlns="http://www.w3.org/2000/svg">
<path d="M15 22.5C15.5625 20.6309 16.7285 19.0371 17.8828 17.4492C18.1875 17.0332 18.4922 16.6172 18.7852 16.1953C19.9453 14.5254 20.625 12.5039 20.625 10.3184C20.625 4.61719 16.0078 0 10.3125 0C4.61719 0 0 4.61719 0 10.3125C0 12.498 0.679688 14.5254 1.83984 16.1895C2.13281 16.6113 2.4375 17.0273 2.74219 17.4434C3.90234 19.0312 5.06836 20.6309 5.625 22.4941H15V22.5ZM10.3125 30C12.9023 30 15 27.9023 15 25.3125V24.375H5.625V25.3125C5.625 27.9023 7.72266 30 10.3125 30ZM5.625 10.3125C5.625 10.8281 5.20312 11.25 4.6875 11.25C4.17188 11.25 3.75 10.8281 3.75 10.3125C3.75 6.68555 6.68555 3.75 10.3125 3.75C10.8281 3.75 11.25 4.17188 11.25 4.6875C11.25 5.20312 10.8281 5.625 10.3125 5.625C7.72266 5.625 5.625 7.72266 5.625 10.3125Z" fill="white"/>
</svg>
