<svg width="15" height="14" viewBox="0 0 15 14" fill="none" xmlns="http://www.w3.org/2000/svg">
<path d="M2.78437 5.33203C3.025 4.65078 3.41562 4.01016 3.96562 3.46328C5.91875 1.51016 9.08438 1.51016 11.0375 3.46328L11.5719 4.00078H10C9.44687 4.00078 9 4.44766 9 5.00078C9 5.55391 9.44687 6.00078 10 6.00078H13.9844H13.9969C14.55 6.00078 14.9969 5.55391 14.9969 5.00078V1.00078C14.9969 0.447656 14.55 0.000781298 13.9969 0.000781298C13.4437 0.000781298 12.9969 0.447656 12.9969 1.00078V2.60078L12.45 2.05078C9.71562 -0.683594 5.28438 -0.683594 2.55 2.05078C1.7875 2.81328 1.2375 3.71016 0.9 4.66953C0.715625 5.19141 0.990625 5.76016 1.50938 5.94453C2.02813 6.12891 2.6 5.85391 2.78437 5.33516V5.33203ZM0.71875 8.04141C0.5625 8.08828 0.4125 8.17266 0.290625 8.29766C0.165625 8.42266 0.08125 8.57266 0.0375 8.73516C0.028125 8.77266 0.01875 8.81328 0.0125 8.85391C0.00312499 8.90703 0 8.96016 0 9.01328V13.0008C0 13.5539 0.446875 14.0008 1 14.0008C1.55313 14.0008 2 13.5539 2 13.0008V11.4039L2.55 11.9508C5.28438 14.682 9.71562 14.682 12.4469 11.9508C13.2094 11.1883 13.7625 10.2914 14.1 9.33516C14.2844 8.81328 14.0094 8.24453 13.4906 8.06016C12.9719 7.87578 12.4 8.15078 12.2156 8.66953C11.975 9.35078 11.5844 9.99141 11.0344 10.5383C9.08125 12.4914 5.91563 12.4914 3.9625 10.5383L3.95937 10.5352L3.425 10.0008H5C5.55312 10.0008 6 9.55391 6 9.00078C6 8.44766 5.55312 8.00078 5 8.00078H1.0125C0.9625 8.00078 0.9125 8.00391 0.8625 8.01016C0.8125 8.01641 0.765625 8.02578 0.71875 8.04141Z" fill="#194E20"/>
</svg>
