<svg width="30" height="27" viewBox="0 0 30 27" fill="none" xmlns="http://www.w3.org/2000/svg">
<path d="M3.75 1.875C3.75 0.837891 2.91211 0 1.875 0C0.837891 0 0 0.837891 0 1.875V21.5625C0 24.1523 2.09766 26.25 4.6875 26.25H28.125C29.1621 26.25 30 25.4121 30 24.375C30 23.3379 29.1621 22.5 28.125 22.5H4.6875C4.17188 22.5 3.75 22.0781 3.75 21.5625V1.875ZM27.5742 6.94922C28.3066 6.2168 28.3066 5.02734 27.5742 4.29492C26.8418 3.5625 25.6523 3.5625 24.9199 4.29492L18.75 10.4707L15.3867 7.10742C14.6543 6.375 13.4648 6.375 12.7324 7.10742L6.16992 13.6699C5.4375 14.4023 5.4375 15.5918 6.16992 16.3242C6.90234 17.0566 8.0918 17.0566 8.82422 16.3242L14.0625 11.0918L17.4258 14.4551C18.1582 15.1875 19.3477 15.1875 20.0801 14.4551L27.5801 6.95508L27.5742 6.94922Z" fill="white"/>
</svg>
