<svg width="20" height="16" viewBox="0 0 20 16" fill="none" xmlns="http://www.w3.org/2000/svg">
<path d="M9.52771 0.0214468C9.22771 -0.0629282 8.91834 0.108947 8.83084 0.408947L8.69646 0.883947C8.43709 0.865197 8.17146 0.883947 7.90896 0.943322C7.68084 0.996447 7.46209 1.0527 7.24959 1.1152L7.07771 0.718322C6.95584 0.433947 6.62459 0.299572 6.34021 0.421447C6.05584 0.543322 5.92146 0.874572 6.04334 1.15895L6.18084 1.48395C5.66209 1.69332 5.19021 1.93395 4.76209 2.19645L4.59334 1.93707C4.42146 1.6777 4.07146 1.60895 3.81209 1.78082C3.55271 1.9527 3.48396 2.3027 3.65584 2.56207L3.84334 2.84332C3.41521 3.18707 3.04646 3.55582 2.72459 3.93395L2.41209 3.68395C2.16834 3.4902 1.81521 3.5277 1.62146 3.77145C1.42771 4.0152 1.46521 4.36832 1.70896 4.56207L2.05896 4.84332C2.00271 4.93082 1.94959 5.02145 1.89959 5.10895C1.69334 5.4652 1.53084 5.8152 1.39959 6.1402L1.14959 6.0402C0.862088 5.92457 0.533963 6.0652 0.418338 6.3527C0.302713 6.6402 0.443338 6.96832 0.730838 7.08395L1.05584 7.2152C1.04959 7.2402 1.04334 7.26207 1.04021 7.28707C0.971463 7.5777 0.933963 7.8277 0.912088 8.01832C0.899588 8.1152 0.893338 8.19645 0.887088 8.26207C0.883963 8.29645 0.883963 8.32457 0.880838 8.34957L0.877713 8.38395V8.39957V8.40582V8.40895C0.877713 8.40895 0.877713 8.41207 1.78709 8.4402H1.78396L0.874588 8.4152C0.871463 8.51207 0.874588 8.60582 0.880838 8.69957L0.405838 8.83395C0.108963 8.91832 -0.0629123 9.23082 0.0214627 9.5277C0.105838 9.82457 0.418338 9.99957 0.718338 9.9152L1.20584 9.77457C1.44334 10.1996 1.79646 10.5558 2.22459 10.7933L2.08396 11.2808C1.99959 11.5808 2.17146 11.8902 2.47146 11.9777C2.77146 12.0652 3.08084 11.8902 3.16834 11.5902L3.30271 11.1152C3.34021 11.1183 3.37771 11.1214 3.41521 11.1214C3.90271 11.1371 4.36209 11.0183 4.75896 10.8027L5.04021 11.0839C5.25896 11.3027 5.61521 11.3027 5.83709 11.0839C6.05896 10.8652 6.05584 10.5089 5.83709 10.2871L5.61209 10.0621C5.90271 9.66832 6.08709 9.19332 6.12146 8.67145L6.34334 8.7652C6.62771 8.88707 6.95896 8.75582 7.08084 8.46832C7.20271 8.18082 7.07146 7.8527 6.78396 7.73082L6.51521 7.6152C6.71521 7.30582 7.05584 6.9152 7.66834 6.57457L7.70896 6.71207C7.79334 7.01207 8.10584 7.18395 8.40584 7.09957C8.70584 7.0152 8.87771 6.7027 8.79334 6.4027L8.72146 6.14957C8.84021 6.1152 8.96209 6.08395 9.09334 6.0527C9.45584 5.96832 9.78396 5.81207 10.0652 5.6027L10.2902 5.8277C10.509 6.04645 10.8652 6.04645 11.0871 5.8277C11.309 5.60895 11.3058 5.2527 11.0871 5.03082L10.8058 4.74957C11.0433 4.3152 11.159 3.80895 11.1215 3.29332L11.5965 3.15895C11.8965 3.07457 12.0683 2.76207 11.984 2.46207C11.8996 2.16207 11.5808 1.99957 11.2808 2.08395L10.7933 2.22457C10.5527 1.7902 10.1965 1.4402 9.77459 1.20582L9.91521 0.718322C9.99959 0.418322 9.82771 0.108947 9.52771 0.0214468ZM3.49959 8.49957L1.99959 8.4527C2.36521 8.4652 2.85271 8.48082 3.49959 8.5027V8.49957ZM3.99959 5.99957C4.2648 5.99957 4.51916 6.10493 4.70669 6.29247C4.89423 6.48 4.99959 6.73436 4.99959 6.99957C4.99959 7.26479 4.89423 7.51914 4.70669 7.70668C4.51916 7.89421 4.2648 7.99957 3.99959 7.99957C3.73437 7.99957 3.48002 7.89421 3.29248 7.70668C3.10494 7.51914 2.99959 7.26479 2.99959 6.99957C2.99959 6.73436 3.10494 6.48 3.29248 6.29247C3.48002 6.10493 3.73437 5.99957 3.99959 5.99957ZM5.99959 4.49957C5.99959 4.36696 6.05227 4.23979 6.14603 4.14602C6.2398 4.05225 6.36698 3.99957 6.49959 3.99957C6.6322 3.99957 6.75937 4.05225 6.85314 4.14602C6.94691 4.23979 6.99959 4.36696 6.99959 4.49957C6.99959 4.63218 6.94691 4.75936 6.85314 4.85313C6.75937 4.94689 6.6322 4.99957 6.49959 4.99957C6.36698 4.99957 6.2398 4.94689 6.14603 4.85313C6.05227 4.75936 5.99959 4.63218 5.99959 4.49957ZM10.084 15.2808C9.99959 15.5808 10.1715 15.8902 10.4715 15.9777C10.7715 16.0652 11.0808 15.8902 11.1652 15.5902L11.2996 15.1152C11.559 15.1339 11.8246 15.1152 12.0871 15.0558C12.3152 15.0027 12.534 14.9464 12.7465 14.8839L12.9183 15.2808C13.0402 15.5652 13.3715 15.6996 13.6558 15.5777C13.9402 15.4558 14.0746 15.1246 13.9527 14.8402L13.8152 14.5152C14.334 14.3058 14.8058 14.0652 15.234 13.8027L15.4058 14.0621C15.5777 14.3214 15.9277 14.3902 16.1871 14.2183C16.4465 14.0464 16.5152 13.6964 16.3433 13.4371L16.1558 13.1558C16.584 12.8121 16.9527 12.4433 17.2746 12.0652L17.5871 12.3152C17.8308 12.5089 18.184 12.4714 18.3777 12.2277C18.5715 11.9839 18.534 11.6308 18.2902 11.4371L17.9402 11.1558C17.9965 11.0683 18.0496 10.9777 18.0996 10.8902C18.3058 10.5339 18.4683 10.1839 18.5996 9.85895L18.8496 9.95895C19.1371 10.0746 19.4652 9.93395 19.5808 9.64645C19.6965 9.35895 19.5558 9.03082 19.2683 8.9152L18.9433 8.78395C18.9496 8.75895 18.9558 8.73707 18.959 8.71207C19.0277 8.42145 19.0652 8.17145 19.0871 7.98082C19.0996 7.88395 19.1058 7.8027 19.1121 7.73707C19.1152 7.7027 19.1152 7.67457 19.1183 7.64957L19.1215 7.6152V7.59957V7.59332V7.5902C19.1215 7.5902 19.1215 7.58707 18.2121 7.55895H18.2152L19.1246 7.58707C19.1277 7.4902 19.1246 7.39645 19.1183 7.3027L19.5933 7.16832C19.8933 7.08395 20.0652 6.77145 19.9808 6.47145C19.8965 6.17145 19.584 5.99957 19.284 6.08395L18.7965 6.22457C18.559 5.79957 18.2058 5.44332 17.7777 5.20582L17.9183 4.71832C18.0027 4.41832 17.8308 4.10895 17.5308 4.02145C17.2308 3.93395 16.9215 4.10895 16.834 4.40895L16.6996 4.88395C16.6621 4.88082 16.6246 4.8777 16.5871 4.8777C16.0996 4.86207 15.6402 4.98082 15.2433 5.19645L14.9621 4.9152C14.7433 4.69645 14.3871 4.69645 14.1652 4.9152C13.9433 5.13395 13.9465 5.4902 14.1652 5.71207L14.3902 5.93707C14.0996 6.33082 13.9152 6.80582 13.8808 7.3277L13.659 7.23395C13.3746 7.11207 13.0433 7.24332 12.9215 7.53082C12.7996 7.81832 12.9308 8.14645 13.2183 8.26832L13.4871 8.38395C13.2871 8.69332 12.9465 9.08395 12.334 9.42457L12.2933 9.28707C12.209 8.98707 11.8965 8.8152 11.5965 8.89957C11.2965 8.98395 11.1246 9.29645 11.209 9.59645L11.2808 9.84957C11.1621 9.88395 11.0402 9.9152 10.909 9.94645C10.5465 10.0308 10.2183 10.1871 9.93709 10.3964L9.71209 10.1714C9.49334 9.9527 9.13709 9.9527 8.91521 10.1714C8.69334 10.3902 8.69646 10.7464 8.91521 10.9683L9.19646 11.2496C8.95896 11.6839 8.84334 12.1902 8.88084 12.7058L8.40584 12.8402C8.10584 12.9246 7.93396 13.2371 8.01834 13.5339C8.10271 13.8308 8.41521 14.0058 8.71521 13.9214L9.20271 13.7808C9.44334 14.2152 9.79959 14.5652 10.2215 14.7996L10.084 15.2808ZM17.9996 7.54645C17.634 7.53395 17.1465 7.51832 16.4996 7.49645L17.9996 7.54332V7.54645ZM13.9996 11.9996C13.9996 12.2648 13.8942 12.5191 13.7067 12.7067C13.5192 12.8942 13.2648 12.9996 12.9996 12.9996C12.7344 12.9996 12.48 12.8942 12.2925 12.7067C12.1049 12.5191 11.9996 12.2648 11.9996 11.9996C11.9996 11.7344 12.1049 11.48 12.2925 11.2925C12.48 11.1049 12.7344 10.9996 12.9996 10.9996C13.2648 10.9996 13.5192 11.1049 13.7067 11.2925C13.8942 11.48 13.9996 11.7344 13.9996 11.9996Z" fill="#194E20"/>
</svg>
