<svg width="27" height="21" viewBox="0 0 27 21" fill="none" xmlns="http://www.w3.org/2000/svg">
<path d="M13.4988 0C9.71133 0 6.67852 1.725 4.4707 3.77812C2.27695 5.8125 0.809766 8.25 0.116016 9.92344C-0.0386719 10.2937 -0.0386719 10.7062 0.116016 11.0766C0.809766 12.75 2.27695 15.1875 4.4707 17.2219C6.67852 19.275 9.71133 21 13.4988 21C17.2863 21 20.3191 19.275 22.527 17.2219C24.7207 15.1828 26.1879 12.75 26.8863 11.0766C27.041 10.7062 27.041 10.2937 26.8863 9.92344C26.1879 8.25 24.7207 5.8125 22.527 3.77812C20.3191 1.725 17.2863 0 13.4988 0ZM6.74883 10.5C6.74883 8.70979 7.45999 6.9929 8.72586 5.72703C9.99173 4.46116 11.7086 3.75 13.4988 3.75C15.289 3.75 17.0059 4.46116 18.2718 5.72703C19.5377 6.9929 20.2488 8.70979 20.2488 10.5C20.2488 12.2902 19.5377 14.0071 18.2718 15.273C17.0059 16.5388 15.289 17.25 13.4988 17.25C11.7086 17.25 9.99173 16.5388 8.72586 15.273C7.45999 14.0071 6.74883 12.2902 6.74883 10.5ZM13.4988 7.5C13.4988 9.15469 12.1535 10.5 10.4988 10.5C10.166 10.5 9.84727 10.4437 9.54727 10.3453C9.28945 10.2609 8.98945 10.4203 8.99883 10.6922C9.01289 11.0156 9.05977 11.3391 9.14883 11.6625C9.79102 14.0625 12.2613 15.4875 14.6613 14.8453C17.0613 14.2031 18.4863 11.7328 17.8441 9.33281C17.3238 7.3875 15.6035 6.07969 13.691 6C13.4191 5.99062 13.2598 6.28594 13.3441 6.54844C13.4426 6.84844 13.4988 7.16719 13.4988 7.5Z" fill="#194E20"/>
</svg>
