<svg width="14" height="16" viewBox="0 0 14 16" fill="none" xmlns="http://www.w3.org/2000/svg">
<g clip-path="url(#clip0_34_364)">
<path d="M7 3.5C6.725 3.5 6.5 3.275 6.5 3V2.5C6.5 1.11875 7.61875 0 9 0H9.5C9.775 0 10 0.225 10 0.5V1C10 2.38125 8.88125 3.5 7.5 3.5H7ZM0 9C0 6.61562 1.11562 4 3.5 4C4.35313 4 5.36562 4.32188 6.08437 4.60313C6.67188 4.83125 7.33125 4.83125 7.91875 4.60313C8.63437 4.325 9.65 4 10.5031 4C12.8875 4 14.0031 6.61562 14.0031 9C14.0031 13 11.5031 16 9.00313 16C8.4875 16 7.8125 15.7938 7.39375 15.6469C7.14062 15.5594 6.86563 15.5594 6.6125 15.6469C6.19375 15.7938 5.51875 16 5.00313 16C2.5 16 0 13 0 9Z" fill="#194E20"/>
</g>
<defs>
<clipPath id="clip0_34_364">
<path d="M0 0H14V16H0V0Z" fill="white"/>
</clipPath>
</defs>
</svg>
