<svg width="18" height="14" viewBox="0 0 18 14" fill="none" xmlns="http://www.w3.org/2000/svg">
<path d="M5.72188 6.35313C6.775 7 7.6875 7.85625 8.40312 8.86875C8.62187 9.17812 8.82187 9.50312 9 9.8375C9.17813 9.5 9.37813 9.17812 9.59688 8.86875C10.3125 7.85625 11.225 7 12.2781 6.35313C13.675 5.49375 15.3156 5 17.0625 5H17.3719C17.7188 5 18 5.28125 18 5.62813C18 10.2531 14.2531 14 9.62813 14H9H8.37187C3.74687 14 0 10.2531 0 5.62813C0 5.28125 0.28125 5 0.628125 5H0.9375C2.68438 5 4.325 5.49375 5.72188 6.35313ZM9.42188 0.175C9.9125 0.703125 11.3313 2.41875 12.0594 5.31875C10.8719 5.99375 9.82812 6.90625 9 7.99375C8.17188 6.90625 7.12813 5.99687 5.94063 5.31875C6.66563 2.41875 8.08438 0.703125 8.57812 0.175C8.6875 0.059375 8.84062 0 9 0C9.15938 0 9.3125 0.059375 9.42188 0.175Z" fill="#194E20"/>
</svg>
