<svg width="30" height="27" viewBox="0 0 30 27" fill="none" xmlns="http://www.w3.org/2000/svg">
<path d="M15.9375 3.75441C11.332 3.75441 7.43555 6.77199 6.11133 10.9321C8.08008 9.93605 10.3008 9.37941 12.6562 9.37941H17.8125C18.3281 9.37941 18.75 9.80129 18.75 10.3169C18.75 10.8325 18.3281 11.2544 17.8125 11.2544H16.875H12.6562C11.6836 11.2544 10.7402 11.3657 9.83203 11.5708C8.31445 11.9165 6.90234 12.5318 5.64844 13.3696C2.24414 15.6372 0 19.5103 0 23.9107V24.8482C0 25.6275 0.626953 26.2544 1.40625 26.2544C2.18555 26.2544 2.8125 25.6275 2.8125 24.8482V23.9107C2.8125 21.0571 4.02539 18.4907 5.96484 16.6919C7.125 21.1157 11.1504 24.3794 15.9375 24.3794H15.9961C23.7363 24.3384 30 16.7095 30 7.30519C30 4.8091 29.5605 2.43605 28.7637 0.29738C28.6113 -0.106917 28.0195 -0.089339 27.8145 0.29152C26.7129 2.35402 24.5332 3.75441 22.0312 3.75441H15.9375Z" fill="white"/>
</svg>
