<svg width="16" height="16" viewBox="0 0 16 16" fill="none" xmlns="http://www.w3.org/2000/svg">
<g clip-path="url(#clip0_34_370)">
<path d="M10.8344 0.1875C10.55 0.53125 9.99998 1.32187 9.99998 2.25C9.99998 3.5 10.4781 3.97813 11.25 4.75C12.0219 5.52187 12.5 6 13.75 6C14.6781 6 15.4687 5.45 15.8125 5.16563C15.9375 5.0625 16 4.90938 16 4.75C16 4.59062 15.9375 4.4375 15.8125 4.3375C15.4562 4.05312 14.6156 3.5 13.5 3.5C12.5 3.5 12.25 3.75 12.25 3.75C12.25 3.75 12.5 3.5 12.5 2.5C12.5 1.38437 11.9469 0.54375 11.6625 0.1875C11.5625 0.0625 11.4094 0 11.25 0C11.0906 0 10.9375 0.0625 10.8344 0.1875ZM7.64373 4.25C6.39373 4.25 5.23435 4.81562 4.4656 5.75625L6.35623 7.64687C6.54998 7.84062 6.54998 8.15937 6.35623 8.35312C6.16248 8.54688 5.84373 8.54688 5.64998 8.35312L3.92185 6.625V6.62813L0.0687261 14.9344C-0.0625239 15.2188 -0.0031489 15.5562 0.218726 15.7812C0.440601 16.0063 0.778101 16.0625 1.0656 15.9312L5.27498 13.9812L3.64685 12.3531C3.4531 12.1594 3.4531 11.8406 3.64685 11.6469C3.8406 11.4531 4.15935 11.4531 4.3531 11.6469L6.2406 13.5312L9.37185 12.0813C10.8219 11.4094 11.7531 9.95625 11.7531 8.35625C11.75 6.0875 9.91248 4.25 7.64373 4.25Z" fill="#194E20"/>
</g>
<defs>
<clipPath id="clip0_34_370">
<path d="M0 0H16V16H0V0Z" fill="white"/>
</clipPath>
</defs>
</svg>
