<svg width="382" height="192" viewBox="0 0 382 192" fill="none" xmlns="http://www.w3.org/2000/svg">
<path d="M382 192H0V0H382V192Z" fill="#525252"/>
<path d="M382 192H0V0H382V192Z" stroke="#E5E7EB"/>
<path d="M262.906 106H119.078V86H262.906V106Z" stroke="#E5E7EB"/>
<path d="M120.311 99V88.8182H126.416V89.9119H121.544V93.3523H125.959V94.446H121.544V99H120.311ZM130.51 99.1591C129.774 99.1591 129.139 98.9967 128.606 98.6719C128.076 98.3438 127.666 97.8864 127.378 97.2997C127.093 96.7098 126.95 96.0237 126.95 95.2415C126.95 94.4593 127.093 93.7699 127.378 93.1733C127.666 92.5734 128.067 92.1061 128.581 91.7713C129.098 91.4332 129.701 91.2642 130.391 91.2642C130.788 91.2642 131.181 91.3305 131.569 91.4631C131.957 91.5956 132.31 91.8111 132.628 92.1094C132.946 92.4044 133.2 92.7955 133.388 93.2827C133.577 93.7699 133.672 94.3698 133.672 95.0824V95.5795H127.786V94.5653H132.479C132.479 94.1345 132.393 93.75 132.22 93.4119C132.051 93.0739 131.809 92.8071 131.494 92.6115C131.183 92.416 130.815 92.3182 130.391 92.3182C129.923 92.3182 129.519 92.4342 129.178 92.6662C128.839 92.8949 128.579 93.1932 128.397 93.5611C128.215 93.929 128.124 94.3234 128.124 94.7443V95.4205C128.124 95.9972 128.223 96.486 128.422 96.8871C128.624 97.2848 128.904 97.5881 129.262 97.7969C129.62 98.0024 130.036 98.1051 130.51 98.1051C130.818 98.1051 131.097 98.062 131.345 97.9759C131.597 97.8864 131.814 97.7538 131.996 97.5781C132.179 97.3991 132.32 97.1771 132.419 96.9119L133.553 97.2301C133.433 97.6146 133.233 97.9527 132.951 98.2443C132.669 98.5327 132.321 98.758 131.907 98.9205C131.493 99.0795 131.027 99.1591 130.51 99.1591ZM137.204 99.179C136.72 99.179 136.281 99.0878 135.886 98.9055C135.492 98.7199 135.179 98.4531 134.947 98.1051C134.715 97.7538 134.599 97.3295 134.599 96.8324C134.599 96.3949 134.685 96.0402 134.857 95.7685C135.03 95.4934 135.26 95.2779 135.548 95.1222C135.837 94.9664 136.155 94.8504 136.503 94.7741C136.854 94.6946 137.207 94.6316 137.562 94.5852C138.026 94.5256 138.402 94.4808 138.69 94.451C138.982 94.4179 139.194 94.3632 139.327 94.2869C139.463 94.2107 139.531 94.0781 139.531 93.8892V93.8494C139.531 93.3589 139.396 92.9777 139.128 92.706C138.863 92.4342 138.46 92.2983 137.92 92.2983C137.36 92.2983 136.92 92.4209 136.602 92.6662C136.284 92.9115 136.06 93.1733 135.931 93.4517L134.817 93.054C135.016 92.59 135.281 92.2287 135.613 91.9702C135.948 91.7083 136.312 91.526 136.707 91.4233C137.104 91.3172 137.496 91.2642 137.88 91.2642C138.125 91.2642 138.407 91.294 138.725 91.3537C139.047 91.41 139.357 91.5277 139.655 91.7067C139.956 91.8857 140.207 92.1558 140.406 92.517C140.604 92.8783 140.704 93.3622 140.704 93.9688V99H139.531V97.9659H139.471C139.391 98.1316 139.259 98.3089 139.073 98.4979C138.888 98.6868 138.641 98.8475 138.332 98.9801C138.024 99.1127 137.648 99.179 137.204 99.179ZM137.383 98.125C137.847 98.125 138.238 98.0339 138.556 97.8516C138.878 97.6693 139.12 97.4339 139.282 97.1456C139.448 96.8572 139.531 96.554 139.531 96.2358V95.1619C139.481 95.2216 139.371 95.2763 139.202 95.326C139.037 95.3724 138.844 95.4138 138.626 95.4503C138.41 95.4834 138.2 95.5133 137.994 95.5398C137.792 95.563 137.628 95.5829 137.502 95.5994C137.197 95.6392 136.912 95.7038 136.647 95.7933C136.385 95.8795 136.173 96.0104 136.011 96.1861C135.852 96.3584 135.772 96.5937 135.772 96.892C135.772 97.2997 135.923 97.608 136.224 97.8168C136.529 98.0223 136.915 98.125 137.383 98.125ZM145.666 91.3636V92.358H141.709V91.3636H145.666ZM142.862 89.5341H144.036V96.8125C144.036 97.1439 144.084 97.3925 144.18 97.5582C144.279 97.7206 144.405 97.83 144.558 97.8864C144.713 97.9394 144.878 97.9659 145.05 97.9659C145.179 97.9659 145.285 97.9593 145.368 97.946C145.451 97.9295 145.517 97.9162 145.567 97.9062L145.806 98.9602C145.726 98.9901 145.615 99.0199 145.472 99.0497C145.33 99.0829 145.149 99.0994 144.931 99.0994C144.599 99.0994 144.274 99.0282 143.956 98.8857C143.641 98.7431 143.379 98.526 143.171 98.2344C142.965 97.9427 142.862 97.5748 142.862 97.1307V89.5341ZM151.744 95.8778V91.3636H152.917V99H151.744V97.7074H151.664C151.485 98.0952 151.207 98.425 150.829 98.6967C150.451 98.9652 149.974 99.0994 149.397 99.0994C148.92 99.0994 148.496 98.995 148.124 98.7862C147.753 98.5741 147.462 98.2559 147.249 97.8317C147.037 97.4041 146.931 96.8655 146.931 96.2159V91.3636H148.105V96.1364C148.105 96.6932 148.26 97.1373 148.572 97.4688C148.887 97.8002 149.288 97.9659 149.775 97.9659C150.067 97.9659 150.363 97.8913 150.665 97.7422C150.97 97.593 151.225 97.3643 151.431 97.0561C151.639 96.7479 151.744 96.3551 151.744 95.8778ZM154.566 99V91.3636H155.7V92.517H155.779C155.918 92.1392 156.17 91.8326 156.535 91.5973C156.899 91.362 157.31 91.2443 157.768 91.2443C157.854 91.2443 157.962 91.246 158.091 91.2493C158.22 91.2526 158.318 91.2576 158.384 91.2642V92.4574C158.344 92.4474 158.253 92.4325 158.111 92.4126C157.972 92.3894 157.824 92.3778 157.668 92.3778C157.297 92.3778 156.966 92.4557 156.674 92.6115C156.386 92.764 156.157 92.9761 155.988 93.2479C155.822 93.5163 155.739 93.8229 155.739 94.1676V99H154.566ZM162.244 99.1591C161.509 99.1591 160.874 98.9967 160.34 98.6719C159.81 98.3438 159.401 97.8864 159.112 97.2997C158.827 96.7098 158.685 96.0237 158.685 95.2415C158.685 94.4593 158.827 93.7699 159.112 93.1733C159.401 92.5734 159.802 92.1061 160.315 91.7713C160.832 91.4332 161.436 91.2642 162.125 91.2642C162.523 91.2642 162.915 91.3305 163.303 91.4631C163.691 91.5956 164.044 91.8111 164.362 92.1094C164.68 92.4044 164.934 92.7955 165.123 93.2827C165.312 93.7699 165.406 94.3698 165.406 95.0824V95.5795H159.52V94.5653H164.213C164.213 94.1345 164.127 93.75 163.955 93.4119C163.786 93.0739 163.544 92.8071 163.229 92.6115C162.917 92.416 162.549 92.3182 162.125 92.3182C161.658 92.3182 161.253 92.4342 160.912 92.6662C160.574 92.8949 160.314 93.1932 160.131 93.5611C159.949 93.929 159.858 94.3234 159.858 94.7443V95.4205C159.858 95.9972 159.957 96.486 160.156 96.8871C160.358 97.2848 160.638 97.5881 160.996 97.7969C161.354 98.0024 161.77 98.1051 162.244 98.1051C162.553 98.1051 162.831 98.062 163.08 97.9759C163.331 97.8864 163.549 97.7538 163.731 97.5781C163.913 97.3991 164.054 97.1771 164.153 96.9119L165.287 97.2301C165.168 97.6146 164.967 97.9527 164.685 98.2443C164.404 98.5327 164.056 98.758 163.641 98.9205C163.227 99.0795 162.761 99.1591 162.244 99.1591ZM169.575 99.1591C168.938 99.1591 168.376 98.9983 167.889 98.6768C167.402 98.352 167.021 97.8946 166.746 97.3047C166.471 96.7114 166.333 96.0104 166.333 95.2017C166.333 94.3996 166.471 93.7036 166.746 93.1136C167.021 92.5237 167.404 92.0679 167.894 91.7464C168.385 91.425 168.951 91.2642 169.594 91.2642C170.092 91.2642 170.484 91.3471 170.773 91.5128C171.064 91.6752 171.286 91.8608 171.439 92.0696C171.595 92.2751 171.716 92.4441 171.802 92.5767H171.901V88.8182H173.075V99H171.941V97.8267H171.802C171.716 97.9659 171.593 98.1416 171.434 98.3537C171.275 98.5625 171.048 98.7498 170.753 98.9155C170.458 99.0779 170.065 99.1591 169.575 99.1591ZM169.734 98.1051C170.204 98.1051 170.602 97.9825 170.927 97.7372C171.252 97.4886 171.499 97.1456 171.668 96.7081C171.837 96.2673 171.921 95.7585 171.921 95.1818C171.921 94.6117 171.838 94.1129 171.673 93.6854C171.507 93.2545 171.262 92.9197 170.937 92.6811C170.612 92.4392 170.211 92.3182 169.734 92.3182C169.237 92.3182 168.822 92.4458 168.491 92.701C168.163 92.9529 167.916 93.2959 167.75 93.7301C167.588 94.161 167.506 94.6449 167.506 95.1818C167.506 95.7254 167.589 96.2192 167.755 96.6634C167.924 97.1042 168.173 97.4555 168.501 97.7173C168.832 97.9759 169.243 98.1051 169.734 98.1051ZM178.901 99H177.608L181.347 88.8182H182.619L186.358 99H185.065L182.023 90.429H181.943L178.901 99ZM179.378 95.0227H184.588V96.1165H179.378V95.0227ZM187.285 99V91.3636H188.418V92.517H188.498C188.637 92.1392 188.889 91.8326 189.254 91.5973C189.618 91.362 190.029 91.2443 190.487 91.2443C190.573 91.2443 190.68 91.246 190.81 91.2493C190.939 91.2526 191.037 91.2576 191.103 91.2642V92.4574C191.063 92.4474 190.972 92.4325 190.83 92.4126C190.69 92.3894 190.543 92.3778 190.387 92.3778C190.016 92.3778 189.684 92.4557 189.393 92.6115C189.104 92.764 188.876 92.9761 188.707 93.2479C188.541 93.5163 188.458 93.8229 188.458 94.1676V99H187.285ZM195.793 91.3636V92.358H191.836V91.3636H195.793ZM192.989 89.5341H194.163V96.8125C194.163 97.1439 194.211 97.3925 194.307 97.5582C194.406 97.7206 194.532 97.83 194.685 97.8864C194.84 97.9394 195.004 97.9659 195.177 97.9659C195.306 97.9659 195.412 97.9593 195.495 97.946C195.578 97.9295 195.644 97.9162 195.694 97.9062L195.933 98.9602C195.853 98.9901 195.742 99.0199 195.599 99.0497C195.457 99.0829 195.276 99.0994 195.058 99.0994C194.726 99.0994 194.401 99.0282 194.083 98.8857C193.768 98.7431 193.506 98.526 193.298 98.2344C193.092 97.9427 192.989 97.5748 192.989 97.1307V89.5341ZM197.058 99V91.3636H198.232V99H197.058ZM197.655 90.0909C197.426 90.0909 197.229 90.013 197.063 89.8572C196.901 89.7015 196.82 89.5142 196.82 89.2955C196.82 89.0767 196.901 88.8894 197.063 88.7337C197.229 88.5779 197.426 88.5 197.655 88.5C197.884 88.5 198.079 88.5779 198.241 88.7337C198.407 88.8894 198.49 89.0767 198.49 89.2955C198.49 89.5142 198.407 89.7015 198.241 89.8572C198.079 90.013 197.884 90.0909 197.655 90.0909ZM202.983 99.1591C202.267 99.1591 201.65 98.9901 201.133 98.652C200.616 98.3139 200.219 97.8482 199.94 97.255C199.662 96.6617 199.523 95.9839 199.523 95.2216C199.523 94.446 199.665 93.7616 199.95 93.1683C200.238 92.5717 200.64 92.1061 201.153 91.7713C201.67 91.4332 202.273 91.2642 202.963 91.2642C203.5 91.2642 203.984 91.3636 204.415 91.5625C204.845 91.7614 205.198 92.0398 205.474 92.3977C205.749 92.7557 205.919 93.1733 205.986 93.6506H204.812C204.723 93.3026 204.524 92.9943 204.216 92.7259C203.911 92.4541 203.5 92.3182 202.983 92.3182C202.525 92.3182 202.124 92.4375 201.78 92.6761C201.438 92.9115 201.171 93.2446 200.979 93.6754C200.79 94.103 200.696 94.6051 200.696 95.1818C200.696 95.7718 200.789 96.2855 200.974 96.723C201.163 97.1605 201.428 97.5002 201.77 97.7422C202.114 97.9841 202.519 98.1051 202.983 98.1051C203.288 98.1051 203.564 98.0521 203.813 97.946C204.062 97.84 204.272 97.6875 204.444 97.4886C204.617 97.2898 204.739 97.0511 204.812 96.7727H205.986C205.919 97.2235 205.755 97.6295 205.493 97.9908C205.235 98.3487 204.892 98.6338 204.464 98.8459C204.04 99.0547 203.546 99.1591 202.983 99.1591ZM208.374 88.8182V99H207.201V88.8182H208.374ZM213.225 99.1591C212.489 99.1591 211.854 98.9967 211.321 98.6719C210.79 98.3438 210.381 97.8864 210.093 97.2997C209.808 96.7098 209.665 96.0237 209.665 95.2415C209.665 94.4593 209.808 93.7699 210.093 93.1733C210.381 92.5734 210.782 92.1061 211.296 91.7713C211.813 91.4332 212.416 91.2642 213.105 91.2642C213.503 91.2642 213.896 91.3305 214.284 91.4631C214.672 91.5956 215.025 91.8111 215.343 92.1094C215.661 92.4044 215.914 92.7955 216.103 93.2827C216.292 93.7699 216.387 94.3698 216.387 95.0824V95.5795H210.5V94.5653H215.194C215.194 94.1345 215.107 93.75 214.935 93.4119C214.766 93.0739 214.524 92.8071 214.209 92.6115C213.898 92.416 213.53 92.3182 213.105 92.3182C212.638 92.3182 212.234 92.4342 211.892 92.6662C211.554 92.8949 211.294 93.1932 211.112 93.5611C210.93 93.929 210.838 94.3234 210.838 94.7443V95.4205C210.838 95.9972 210.938 96.486 211.137 96.8871C211.339 97.2848 211.619 97.5881 211.977 97.7969C212.335 98.0024 212.751 98.1051 213.225 98.1051C213.533 98.1051 213.811 98.062 214.06 97.9759C214.312 97.8864 214.529 97.7538 214.711 97.5781C214.894 97.3991 215.034 97.1771 215.134 96.9119L216.267 97.2301C216.148 97.6146 215.948 97.9527 215.666 98.2443C215.384 98.5327 215.036 98.758 214.622 98.9205C214.208 99.0795 213.742 99.1591 213.225 99.1591ZM222.501 88.8182V99H221.268V88.8182H222.501ZM224.314 99V91.3636H225.448V92.5568H225.547C225.706 92.1491 225.963 91.8326 226.318 91.6072C226.672 91.3786 227.098 91.2642 227.595 91.2642C228.099 91.2642 228.518 91.3786 228.853 91.6072C229.191 91.8326 229.455 92.1491 229.644 92.5568H229.723C229.919 92.1624 230.212 91.8492 230.603 91.6172C230.994 91.3819 231.463 91.2642 232.01 91.2642C232.693 91.2642 233.251 91.478 233.686 91.9055C234.12 92.3298 234.337 92.991 234.337 93.8892V99H233.164V93.8892C233.164 93.3258 233.009 92.9231 232.701 92.6811C232.393 92.4392 232.03 92.3182 231.612 92.3182C231.075 92.3182 230.66 92.4806 230.365 92.8054C230.07 93.1269 229.922 93.5346 229.922 94.0284V99H228.729V93.7699C228.729 93.3357 228.588 92.986 228.306 92.7209C228.025 92.4524 227.662 92.3182 227.218 92.3182C226.913 92.3182 226.628 92.3994 226.362 92.5618C226.101 92.7242 225.888 92.9496 225.726 93.2379C225.567 93.523 225.487 93.8527 225.487 94.2273V99H224.314ZM238.229 99.179C237.745 99.179 237.306 99.0878 236.912 98.9055C236.517 98.7199 236.204 98.4531 235.972 98.1051C235.74 97.7538 235.624 97.3295 235.624 96.8324C235.624 96.3949 235.71 96.0402 235.883 95.7685C236.055 95.4934 236.285 95.2779 236.574 95.1222C236.862 94.9664 237.18 94.8504 237.528 94.7741C237.88 94.6946 238.233 94.6316 238.587 94.5852C239.051 94.5256 239.427 94.4808 239.716 94.451C240.007 94.4179 240.22 94.3632 240.352 94.2869C240.488 94.2107 240.556 94.0781 240.556 93.8892V93.8494C240.556 93.3589 240.422 92.9777 240.153 92.706C239.888 92.4342 239.485 92.2983 238.945 92.2983C238.385 92.2983 237.946 92.4209 237.628 92.6662C237.309 92.9115 237.086 93.1733 236.956 93.4517L235.843 93.054C236.042 92.59 236.307 92.2287 236.638 91.9702C236.973 91.7083 237.338 91.526 237.732 91.4233C238.13 91.3172 238.521 91.2642 238.905 91.2642C239.151 91.2642 239.432 91.294 239.751 91.3537C240.072 91.41 240.382 91.5277 240.68 91.7067C240.982 91.8857 241.232 92.1558 241.431 92.517C241.63 92.8783 241.729 93.3622 241.729 93.9688V99H240.556V97.9659H240.496C240.417 98.1316 240.284 98.3089 240.099 98.4979C239.913 98.6868 239.666 98.8475 239.358 98.9801C239.05 99.1127 238.673 99.179 238.229 99.179ZM238.408 98.125C238.872 98.125 239.263 98.0339 239.581 97.8516C239.903 97.6693 240.145 97.4339 240.307 97.1456C240.473 96.8572 240.556 96.554 240.556 96.2358V95.1619C240.506 95.2216 240.397 95.2763 240.228 95.326C240.062 95.3724 239.87 95.4138 239.651 95.4503C239.436 95.4834 239.225 95.5133 239.02 95.5398C238.818 95.563 238.653 95.5829 238.528 95.5994C238.223 95.6392 237.938 95.7038 237.672 95.7933C237.411 95.8795 237.198 96.0104 237.036 96.1861C236.877 96.3584 236.797 96.5937 236.797 96.892C236.797 97.2997 236.948 97.608 237.25 97.8168C237.555 98.0223 237.941 98.125 238.408 98.125ZM246.453 102.023C245.886 102.023 245.399 101.95 244.991 101.804C244.584 101.661 244.244 101.473 243.972 101.237C243.704 101.005 243.49 100.757 243.331 100.491L244.266 99.8352C244.372 99.9744 244.506 100.134 244.668 100.312C244.831 100.495 245.053 100.652 245.335 100.785C245.62 100.921 245.992 100.989 246.453 100.989C247.07 100.989 247.578 100.839 247.979 100.541C248.38 100.243 248.581 99.7756 248.581 99.1392V97.5881H248.482C248.395 97.7273 248.273 97.8996 248.114 98.1051C247.958 98.3073 247.732 98.4879 247.438 98.647C247.146 98.8028 246.751 98.8807 246.254 98.8807C245.638 98.8807 245.084 98.7348 244.594 98.4432C244.107 98.1515 243.72 97.7273 243.435 97.1705C243.154 96.6136 243.013 95.9375 243.013 95.142C243.013 94.3598 243.15 93.6787 243.425 93.0987C243.701 92.5154 244.083 92.0646 244.574 91.7464C245.064 91.425 245.631 91.2642 246.274 91.2642C246.771 91.2642 247.166 91.3471 247.457 91.5128C247.752 91.6752 247.978 91.8608 248.134 92.0696C248.293 92.2751 248.415 92.4441 248.501 92.5767H248.621V91.3636H249.754V99.2188C249.754 99.875 249.605 100.409 249.307 100.82C249.012 101.234 248.614 101.537 248.114 101.729C247.616 101.925 247.063 102.023 246.453 102.023ZM246.413 97.8267C246.884 97.8267 247.282 97.719 247.607 97.5036C247.931 97.2881 248.178 96.9782 248.347 96.5739C248.516 96.1695 248.601 95.6856 248.601 95.1222C248.601 94.572 248.518 94.0864 248.352 93.6655C248.187 93.2446 247.941 92.9148 247.616 92.6761C247.292 92.4375 246.891 92.3182 246.413 92.3182C245.916 92.3182 245.502 92.4441 245.17 92.696C244.842 92.9479 244.595 93.286 244.43 93.7102C244.267 94.1345 244.186 94.6051 244.186 95.1222C244.186 95.6525 244.269 96.1214 244.435 96.5291C244.604 96.9335 244.852 97.2517 245.18 97.4837C245.512 97.7124 245.923 97.8267 246.413 97.8267ZM254.604 99.1591C253.868 99.1591 253.233 98.9967 252.7 98.6719C252.169 98.3438 251.76 97.8864 251.472 97.2997C251.187 96.7098 251.044 96.0237 251.044 95.2415C251.044 94.4593 251.187 93.7699 251.472 93.1733C251.76 92.5734 252.161 92.1061 252.675 91.7713C253.192 91.4332 253.795 91.2642 254.484 91.2642C254.882 91.2642 255.275 91.3305 255.663 91.4631C256.05 91.5956 256.403 91.8111 256.722 92.1094C257.04 92.4044 257.293 92.7955 257.482 93.2827C257.671 93.7699 257.766 94.3698 257.766 95.0824V95.5795H251.879V94.5653H256.572C256.572 94.1345 256.486 93.75 256.314 93.4119C256.145 93.0739 255.903 92.8071 255.588 92.6115C255.277 92.416 254.909 92.3182 254.484 92.3182C254.017 92.3182 253.613 92.4342 253.271 92.6662C252.933 92.8949 252.673 93.1932 252.491 93.5611C252.308 93.929 252.217 94.3234 252.217 94.7443V95.4205C252.217 95.9972 252.317 96.486 252.516 96.8871C252.718 97.2848 252.998 97.5881 253.356 97.7969C253.714 98.0024 254.13 98.1051 254.604 98.1051C254.912 98.1051 255.19 98.062 255.439 97.9759C255.691 97.8864 255.908 97.7538 256.09 97.5781C256.272 97.3991 256.413 97.1771 256.513 96.9119L257.646 97.2301C257.527 97.6146 257.326 97.9527 257.045 98.2443C256.763 98.5327 256.415 98.758 256.001 98.9205C255.586 99.0795 255.121 99.1591 254.604 99.1591Z" fill="white"/>
</svg>
