<svg width="25" height="20" viewBox="0 0 25 20" fill="none" xmlns="http://www.w3.org/2000/svg">
<path d="M11.4923 0.0468532C11.6915 0.128884 11.8321 0.308572 11.8673 0.519509L12.4181 3.8281L15.7267 4.37888C15.9376 4.41404 16.1173 4.55467 16.1993 4.75388C16.2814 4.9531 16.2579 5.17967 16.1368 5.35545L14.6329 7.50388C14.547 7.49998 14.461 7.49607 14.3712 7.49607C13.461 7.49607 12.6095 7.73826 11.8712 8.16404V8.12107C11.8712 6.05076 10.1915 4.37107 8.12119 4.37107C6.05088 4.37107 4.37119 6.05076 4.37119 8.12107C4.37119 10.1914 6.05088 11.8711 8.12119 11.8711C8.4376 11.8711 8.74229 11.832 9.03526 11.7578C7.60557 12.4648 6.5626 13.832 6.30869 15.4648L5.35557 16.1289C5.17979 16.2539 4.95323 16.2773 4.75401 16.1914C4.55479 16.1054 4.41416 15.9297 4.37901 15.7187L3.83213 12.4179L0.523538 11.8672C0.3126 11.832 0.132913 11.6914 0.0508815 11.4922C-0.0311497 11.2929 -0.00771219 11.0664 0.113382 10.8906L2.05088 8.12498L0.113382 5.35935C-0.0116184 5.18357 -0.035056 4.95701 0.0508815 4.75779C0.136819 4.55857 0.3126 4.41795 0.523538 4.38279L3.83213 3.83201L4.38291 0.523416C4.41807 0.312478 4.55869 0.132791 4.75791 0.0507595C4.95713 -0.0312718 5.18369 -0.00783426 5.35948 0.113259L8.1251 2.05076L10.8907 0.113259C11.0665 -0.0117405 11.2931 -0.035178 11.4923 0.0507595V0.0468532ZM5.6251 8.12498C5.6251 7.46194 5.88849 6.82605 6.35733 6.35721C6.82617 5.88837 7.46206 5.62498 8.1251 5.62498C8.78814 5.62498 9.42403 5.88837 9.89287 6.35721C10.3617 6.82605 10.6251 7.46194 10.6251 8.12498C10.6251 8.78802 10.3617 9.4239 9.89287 9.89274C9.42403 10.3616 8.78814 10.625 8.1251 10.625C7.46206 10.625 6.82617 10.3616 6.35733 9.89274C5.88849 9.4239 5.6251 8.78802 5.6251 8.12498ZM24.9962 16.8711C24.9962 18.5976 23.5978 19.9961 21.8712 19.9961H11.2501C9.17979 19.9961 7.5001 18.3164 7.5001 16.2461C7.5001 14.3867 8.85166 12.8476 10.6251 12.5508V12.5C10.6251 10.4297 12.3048 8.74998 14.3751 8.74998C15.7384 8.74998 16.9298 9.47654 17.586 10.5625C18.0939 10.207 18.711 9.99998 19.3751 9.99998C21.1017 9.99998 22.5001 11.3984 22.5001 13.125C22.5001 13.3554 22.4767 13.582 22.4259 13.7969C23.8868 14.0586 24.9962 15.3359 24.9962 16.8711Z" fill="white"/>
</svg>
