<svg width="36" height="36" viewBox="0 0 36 36" fill="none" xmlns="http://www.w3.org/2000/svg">
<g clip-path="url(#clip0_34_1589)">
<path d="M12.2836 3.17109C13.514 1.19531 15.6797 0 18 0C20.3203 0 22.4859 1.19531 23.7164 3.17109L26.4305 7.50938L28.3289 6.4125C28.9195 6.06797 29.6578 6.11719 30.1992 6.53203C30.7406 6.94688 30.9797 7.65 30.8039 8.31094L29.1586 14.4563C28.9195 15.3563 27.9914 15.8906 27.0914 15.6516L20.9461 14.0062C20.2851 13.8305 19.8 13.275 19.7086 12.6C19.6172 11.925 19.9476 11.257 20.5383 10.9195L22.5351 9.76641L19.8984 5.55469C19.4906 4.90078 18.7734 4.5 18 4.5C17.2265 4.5 16.5094 4.90078 16.1015 5.55469L14.8711 7.52344C14.2242 8.56406 12.8601 8.89453 11.8055 8.26172C10.7297 7.61484 10.3851 6.20859 11.0531 5.13984L12.2836 3.17109ZM30.1992 17.7117C31.2539 17.0789 32.618 17.4094 33.2648 18.45L34.9805 21.1992C35.6414 22.2609 35.993 23.4773 36.007 24.7289C36.0281 28.4625 33.0047 31.507 29.2711 31.507L22.5 31.5V33.75C22.5 34.432 22.0922 35.0508 21.4594 35.3109C20.8266 35.5711 20.1023 35.4305 19.6172 34.9453L15.1172 30.4453C14.4562 29.7844 14.4562 28.7156 15.1172 28.0617L19.6172 23.5617C20.1023 23.0766 20.8266 22.9359 21.4594 23.1961C22.0922 23.4562 22.5 24.075 22.5 24.757V27.007H29.2641C30.5016 27.007 31.507 25.9945 31.5 24.757C31.5 24.3422 31.3805 23.9344 31.1625 23.5828L29.4469 20.8336C28.7789 19.7648 29.1164 18.3586 30.1992 17.7117ZM4.56327 15.532L2.53124 14.3578C1.94061 14.0133 1.61014 13.3523 1.70155 12.6773C1.79296 12.0023 2.27811 11.4469 2.93905 11.2711L9.08436 9.62578C9.98436 9.38672 10.9125 9.92109 11.1516 10.8211L12.7969 16.9594C12.9726 17.6203 12.7336 18.3164 12.1922 18.7383C11.6508 19.1602 10.9125 19.2023 10.3219 18.8578L8.45858 17.782L4.83749 23.5758C4.61952 23.9273 4.49999 24.3352 4.49999 24.75C4.49296 25.9875 5.49843 27 6.73593 27H8.99999C10.2445 27 11.25 28.0055 11.25 29.25C11.25 30.4945 10.2445 31.5 8.99999 31.5H6.73593C3.00233 31.5 -0.0211061 28.4625 -1.23635e-05 24.7219C0.00701889 23.4703 0.358581 22.2539 1.02655 21.1922L4.56327 15.532Z" fill="#194E20"/>
</g>
<defs>
<clipPath id="clip0_34_1589">
<path d="M0 0H36V36H0V0Z" fill="white"/>
</clipPath>
</defs>
</svg>
