<svg width="12" height="16" viewBox="0 0 12 16" fill="none" xmlns="http://www.w3.org/2000/svg">
<path d="M6 16C2.6875 16 0 13.3125 0 10C0 7.15 4.06875 1.80313 5.20625 0.365625C5.39375 0.13125 5.67188 0 5.97188 0H6.02812C6.32812 0 6.60625 0.13125 6.79375 0.365625C7.93125 1.80313 12 7.15 12 10C12 13.3125 9.3125 16 6 16ZM3 10.5C3 10.225 2.775 10 2.5 10C2.225 10 2 10.225 2 10.5C2 12.4344 3.56562 14 5.5 14C5.775 14 6 13.775 6 13.5C6 13.225 5.775 13 5.5 13C4.11875 13 3 11.8813 3 10.5Z" fill="white"/>
</svg>
