<svg width="20" height="16" viewBox="0 0 20 16" fill="none" xmlns="http://www.w3.org/2000/svg">
<path d="M8 2H12V4H8V2ZM7.5 0C6.67188 0 6 0.671875 6 1.5V4.5C6 5.32812 6.67188 6 7.5 6H9V7H1C0.446875 7 0 7.44688 0 8C0 8.55313 0.446875 9 1 9H4V10H2.5C1.67188 10 1 10.6719 1 11.5V14.5C1 15.3281 1.67188 16 2.5 16H7.5C8.32812 16 9 15.3281 9 14.5V11.5C9 10.6719 8.32812 10 7.5 10H6V9H14V10H12.5C11.6719 10 11 10.6719 11 11.5V14.5C11 15.3281 11.6719 16 12.5 16H17.5C18.3281 16 19 15.3281 19 14.5V11.5C19 10.6719 18.3281 10 17.5 10H16V9H19C19.5531 9 20 8.55313 20 8C20 7.44688 19.5531 7 19 7H11V6H12.5C13.3281 6 14 5.32812 14 4.5V1.5C14 0.671875 13.3281 0 12.5 0H7.5ZM3 14V12H7V14H3ZM13 12H17V14H13V12Z" fill="#194E20"/>
</svg>
