<svg width="36" height="36" viewBox="0 0 36 36" fill="none" xmlns="http://www.w3.org/2000/svg">
<path d="M36 36H0V0H36V36Z" stroke="#E5E7EB"/>
<path d="M4.5 4.5C4.5 3.25547 3.49453 2.25 2.25 2.25C1.00547 2.25 0 3.25547 0 4.5V28.125C0 31.2328 2.51719 33.75 5.625 33.75H33.75C34.9945 33.75 36 32.7445 36 31.5C36 30.2555 34.9945 29.25 33.75 29.25H5.625C5.00625 29.25 4.5 28.7437 4.5 28.125V4.5ZM33.0891 10.5891C33.968 9.71016 33.968 8.28281 33.0891 7.40391C32.2102 6.525 30.7828 6.525 29.9039 7.40391L22.5 14.8148L18.4641 10.7789C17.5852 9.9 16.1578 9.9 15.2789 10.7789L7.40391 18.6539C6.525 19.5328 6.525 20.9602 7.40391 21.8391C8.28281 22.718 9.71016 22.718 10.5891 21.8391L16.875 15.5602L20.9109 19.5961C21.7898 20.475 23.2172 20.475 24.0961 19.5961L33.0961 10.5961L33.0891 10.5891Z" fill="#194E20"/>
</svg>
