<svg width="36" height="36" viewBox="0 0 36 36" fill="none" xmlns="http://www.w3.org/2000/svg">
<path d="M9 0H13.5C14.7445 0 15.75 1.00547 15.75 2.25V9H6.75V2.25C6.75 1.00547 7.75547 0 9 0ZM0 18C0 14.2734 3.02344 11.25 6.75 11.25H15.75C19.4766 11.25 22.5 14.2734 22.5 18V32.625C22.5 34.4883 20.9883 36 19.125 36H3.375C1.51172 36 0 34.4883 0 32.625V18ZM16.875 23.625C16.875 22.1332 16.2824 20.7024 15.2275 19.6475C14.1726 18.5926 12.7418 18 11.25 18C9.75816 18 8.32742 18.5926 7.27252 19.6475C6.21763 20.7024 5.625 22.1332 5.625 23.625C5.625 25.1168 6.21763 26.5476 7.27252 27.6025C8.32742 28.6574 9.75816 29.25 11.25 29.25C12.7418 29.25 14.1726 28.6574 15.2275 27.6025C16.2824 26.5476 16.875 25.1168 16.875 23.625ZM18 4.5C18 3.90326 18.2371 3.33097 18.659 2.90901C19.081 2.48705 19.6533 2.25 20.25 2.25C20.8467 2.25 21.419 2.48705 21.841 2.90901C22.2629 3.33097 22.5 3.90326 22.5 4.5C22.5 5.09674 22.2629 5.66903 21.841 6.09099C21.419 6.51295 20.8467 6.75 20.25 6.75C19.6533 6.75 19.081 6.51295 18.659 6.09099C18.2371 5.66903 18 5.09674 18 4.5ZM27 2.25C27.5967 2.25 28.169 2.48705 28.591 2.90901C29.0129 3.33097 29.25 3.90326 29.25 4.5C29.25 5.09674 29.0129 5.66903 28.591 6.09099C28.169 6.51295 27.5967 6.75 27 6.75C26.4033 6.75 25.831 6.51295 25.409 6.09099C24.9871 5.66903 24.75 5.09674 24.75 4.5C24.75 3.90326 24.9871 3.33097 25.409 2.90901C25.831 2.48705 26.4033 2.25 27 2.25ZM31.5 4.5C31.5 3.90326 31.7371 3.33097 32.159 2.90901C32.581 2.48705 33.1533 2.25 33.75 2.25C34.3467 2.25 34.919 2.48705 35.341 2.90901C35.7629 3.33097 36 3.90326 36 4.5C36 5.09674 35.7629 5.66903 35.341 6.09099C34.919 6.51295 34.3467 6.75 33.75 6.75C33.1533 6.75 32.581 6.51295 32.159 6.09099C31.7371 5.66903 31.5 5.09674 31.5 4.5ZM33.75 9C34.3467 9 34.919 9.23705 35.341 9.65901C35.7629 10.081 36 10.6533 36 11.25C36 11.8467 35.7629 12.419 35.341 12.841C34.919 13.2629 34.3467 13.5 33.75 13.5C33.1533 13.5 32.581 13.2629 32.159 12.841C31.7371 12.419 31.5 11.8467 31.5 11.25C31.5 10.6533 31.7371 10.081 32.159 9.65901C32.581 9.23705 33.1533 9 33.75 9ZM31.5 18C31.5 17.4033 31.7371 16.831 32.159 16.409C32.581 15.9871 33.1533 15.75 33.75 15.75C34.3467 15.75 34.919 15.9871 35.341 16.409C35.7629 16.831 36 17.4033 36 18C36 18.5967 35.7629 19.169 35.341 19.591C34.919 20.0129 34.3467 20.25 33.75 20.25C33.1533 20.25 32.581 20.0129 32.159 19.591C31.7371 19.169 31.5 18.5967 31.5 18ZM27 9C27.5967 9 28.169 9.23705 28.591 9.65901C29.0129 10.081 29.25 10.6533 29.25 11.25C29.25 11.8467 29.0129 12.419 28.591 12.841C28.169 13.2629 27.5967 13.5 27 13.5C26.4033 13.5 25.831 13.2629 25.409 12.841C24.9871 12.419 24.75 11.8467 24.75 11.25C24.75 10.6533 24.9871 10.081 25.409 9.65901C25.831 9.23705 26.4033 9 27 9Z" fill="#194E20"/>
</svg>
