<svg width="36" height="36" viewBox="0 0 36 36" fill="none" xmlns="http://www.w3.org/2000/svg">
<path d="M35.5061 2.87666C36.167 2.21573 36.167 1.14698 35.5061 0.49307C34.8451 -0.160836 33.7764 -0.167868 33.1225 0.49307L26.9279 6.67354C26.267 7.33448 26.267 8.40322 26.9279 9.05713C27.5889 9.71104 28.6576 9.71807 29.3115 9.05713L35.499 2.86963L35.5061 2.87666ZM21.4787 1.91338C21.0428 1.47744 20.3256 1.47744 19.8896 1.91338L19.0881 2.70791C16.4514 5.34463 16.4514 9.61963 19.0881 12.2563L19.8193 12.9876L17.6748 15.1321C17.4357 13.2126 16.585 11.3493 15.1084 9.87276L14.3139 9.07823C13.8779 8.64229 13.1607 8.64229 12.7248 9.07823L11.9303 9.87276C9.29356 12.5095 9.29356 16.7845 11.9303 19.4212L12.6615 20.1524L10.517 22.297C10.2779 20.3774 9.42715 18.5142 7.95059 17.0376L7.15605 16.236C6.72012 15.8001 6.00293 15.8001 5.56699 16.236L4.77246 17.0306C2.13574 19.6673 2.13574 23.9423 4.77246 26.579L5.50371 27.3103L0.65918 32.1548C-0.219727 33.0337 -0.219727 34.461 0.65918 35.3399C1.53809 36.2188 2.96543 36.2188 3.84434 35.3399L8.68887 30.4954L9.54668 31.3532C12.1834 33.9899 16.4584 33.9899 19.0951 31.3532L19.8896 30.5587C20.3256 30.1228 20.3256 29.4056 19.8896 28.9696L19.0951 28.1751C17.5623 26.6423 15.6076 25.7774 13.6037 25.5806L15.8467 23.3376L16.7045 24.1954C19.3412 26.8321 23.6162 26.8321 26.2529 24.1954L27.0475 23.4009C27.4834 22.9649 27.4834 22.2478 27.0475 21.8118L26.2529 21.0173C24.7201 19.4845 22.7654 18.6196 20.7615 18.4228L23.0045 16.1798L23.8623 17.0376C26.499 19.6743 30.774 19.6743 33.4107 17.0376L34.2053 16.236C34.6412 15.8001 34.6412 15.0829 34.2053 14.647L33.4107 13.8454C33.0451 13.4798 32.6654 13.1564 32.2576 12.8681L35.5061 9.62666C36.167 8.96572 36.167 7.89698 35.5061 7.24307C34.8451 6.58916 33.7764 6.58213 33.1225 7.24307L28.9459 11.4196C27.4975 11.1103 25.9928 11.1595 24.5654 11.5673C24.9943 10.0696 25.0295 8.4876 24.6639 6.97588L28.7561 2.87666C29.417 2.21573 29.417 1.14698 28.7561 0.49307C28.0951 -0.160836 27.0264 -0.167868 26.3725 0.49307L23.1381 3.71338C22.8779 3.36182 22.5896 3.02432 22.2662 2.70791L21.4787 1.91338Z" fill="white"/>
</svg>
