<svg width="36" height="36" viewBox="0 0 36 36" fill="none" xmlns="http://www.w3.org/2000/svg">
<path d="M16.8811 0.295312C17.5701 -0.0984375 18.4209 -0.0984375 19.117 0.295312L31.1967 7.19297L31.499 7.3125V7.37578L34.867 9.30234C35.7529 9.80859 36.1889 10.8492 35.9287 11.8336C35.6686 12.818 34.7756 13.507 33.7561 13.507H2.24902C1.22949 13.507 0.336519 12.818 0.0763627 11.8336C-0.183794 10.8492 0.252144 9.80859 1.13808 9.30234L4.49902 7.37578V7.3125L4.80839 7.2L16.8811 0.295312ZM4.49902 15.75H8.99902V29.25H11.8115V15.75H16.3115V29.25H19.6865V15.75H24.1865V29.25H26.999V15.75H31.499V29.5523C31.5412 29.5734 31.5834 29.6016 31.6256 29.6297L35.0006 31.8797C35.8232 32.4281 36.1959 33.4547 35.9076 34.4039C35.6193 35.3531 34.7404 36 33.749 36H2.24902C1.25761 36 0.385738 35.3531 0.0974565 34.4039C-0.190825 33.4547 0.1748 32.4281 1.00449 31.8797L4.37949 29.6297C4.42168 29.6016 4.46386 29.5805 4.50605 29.5523V15.75H4.49902Z" fill="white"/>
</svg>
