<svg width="36" height="32" viewBox="0 0 36 32" fill="none" xmlns="http://www.w3.org/2000/svg">
<path d="M19.125 4.50529C13.5984 4.50529 8.92266 8.12639 7.33359 13.1186C9.69609 11.9233 12.3609 11.2553 15.1875 11.2553H21.375C21.9937 11.2553 22.5 11.7615 22.5 12.3803C22.5 12.999 21.9937 13.5053 21.375 13.5053H20.25H15.1875C14.0203 13.5053 12.8883 13.6389 11.7984 13.885C9.97734 14.2998 8.28281 15.0381 6.77813 16.0436C2.69297 18.7647 0 23.4123 0 28.6928V29.8178C0 30.753 0.752344 31.5053 1.6875 31.5053C2.62266 31.5053 3.375 30.753 3.375 29.8178V28.6928C3.375 25.2686 4.83047 22.1889 7.15781 20.0303C8.55 25.3389 13.3805 29.2553 19.125 29.2553H19.1953C28.4836 29.2061 36 20.0514 36 8.76623C36 5.77092 35.4727 2.92326 34.5164 0.356856C34.3336 -0.128301 33.6234 -0.107207 33.3773 0.349824C32.0555 2.82482 29.4398 4.50529 26.4375 4.50529H19.125Z" fill="white"/>
</svg>
