<svg width="20" height="20" viewBox="0 0 20 20" fill="none" xmlns="http://www.w3.org/2000/svg">
<path d="M2.01953 11.5273L3.25781 11.7734C3.56641 11.8359 3.88281 11.7383 4.10547 11.5156L4.70703 10.9141C5.16016 10.4609 5.92187 10.5859 6.20703 11.1562L6.57031 11.8789C6.75781 12.2539 7.14062 12.4922 7.5625 12.4922C8.15625 12.4922 8.58203 11.9219 8.41016 11.3516L8.17578 10.5742C7.99609 9.97266 8.44531 9.36719 9.07422 9.36719H9.16406C9.6875 9.36719 10.1758 9.10547 10.4648 8.67188L10.8828 8.04297C11.1016 7.71094 11.0898 7.27734 10.8516 6.96094L10.2227 6.12109C9.82031 5.58594 10.0938 4.8125 10.7461 4.64844L11.4102 4.48047C11.7031 4.40625 11.9414 4.19922 12.0547 3.91797L12.6953 2.32031C11.8516 2.03516 10.9453 1.875 10 1.875C5.51172 1.875 1.875 5.51172 1.875 10C1.875 10.5234 1.92578 11.0352 2.01953 11.5273ZM17.9453 11.707C17.8281 11.6953 17.7109 11.7031 17.5938 11.7383L16.9766 11.9102C16.7148 11.9844 16.4375 11.875 16.293 11.6484L16.2148 11.5273C15.9805 11.1602 15.5742 10.9375 15.1367 10.9375C14.6992 10.9375 14.293 11.1602 14.0586 11.5273L13.8203 11.8984C13.7656 11.9844 13.6875 12.0586 13.5977 12.1055L12.1875 12.8945C11.4805 13.2891 11.1914 14.1602 11.5234 14.8984L11.7383 15.3828C12.0742 16.1328 12.9375 16.4961 13.7109 16.207L13.8125 16.168C14.2031 16.0234 14.6445 16.082 14.9805 16.3281L15.0391 16.3711C16.4922 15.2188 17.543 13.582 17.9453 11.7031V11.707ZM0 10C0 7.34784 1.05357 4.8043 2.92893 2.92893C4.8043 1.05357 7.34784 0 10 0C12.6522 0 15.1957 1.05357 17.0711 2.92893C18.9464 4.8043 20 7.34784 20 10C20 12.6522 18.9464 15.1957 17.0711 17.0711C15.1957 18.9464 12.6522 20 10 20C7.34784 20 4.8043 18.9464 2.92893 17.0711C1.05357 15.1957 0 12.6522 0 10ZM5.64453 13.5977C5.5625 13.9336 5.76562 14.2734 6.09766 14.3555L7.34766 14.668C7.68359 14.75 8.02344 14.5469 8.10547 14.2148C8.1875 13.8828 7.98438 13.5391 7.65234 13.457L6.40234 13.1445C6.06641 13.0625 5.72656 13.2656 5.64453 13.5977ZM9.23828 12.8164C9.15625 13.1523 9.35938 13.4922 9.69141 13.5742C10.0234 13.6562 10.3672 13.4531 10.4492 13.1211L10.7617 11.8711C10.8438 11.5352 10.6406 11.1953 10.3086 11.1133C9.97656 11.0312 9.63281 11.2344 9.55078 11.5664L9.23828 12.8164ZM13.4062 4.44141C13.0977 4.28516 12.7227 4.41406 12.5664 4.72266L11.9414 5.97266C11.7852 6.28125 11.9141 6.65625 12.2227 6.8125C12.5312 6.96875 12.9062 6.83984 13.0625 6.53125L13.6875 5.28125C13.8438 4.97266 13.7148 4.59766 13.4062 4.44141Z" fill="white"/>
</svg>
