<svg width="32" height="36" viewBox="0 0 32 36" fill="none" xmlns="http://www.w3.org/2000/svg">
<g clip-path="url(#clip0_34_1579)">
<path d="M30.8391 19.589C31.718 18.7101 31.718 17.2827 30.8391 16.4038L19.5891 5.15381C18.7102 4.2749 17.2828 4.2749 16.4039 5.15381C15.525 6.03271 15.525 7.46006 16.4039 8.33896L23.8219 15.7499H2.25C1.00547 15.7499 0 16.7554 0 17.9999C0 19.2444 1.00547 20.2499 2.25 20.2499H23.8148L16.4109 27.6608C15.532 28.5397 15.532 29.9671 16.4109 30.846C17.2898 31.7249 18.7172 31.7249 19.5961 30.846L30.8461 19.596L30.8391 19.589Z" fill="#194E20"/>
</g>
<defs>
<clipPath id="clip0_34_1579">
<path d="M0 0H31.5V36H0V0Z" fill="white"/>
</clipPath>
</defs>
</svg>
