<svg width="20" height="20" viewBox="0 0 20 20" fill="none" xmlns="http://www.w3.org/2000/svg">
<path d="M6.25 1.25C6.25 0.558594 6.80859 0 7.5 0H8.75C9.44141 0 10 0.558594 10 1.25C10.6914 1.25 11.25 1.80859 11.25 2.5V11.25C11.25 11.9414 10.6914 12.5 10 12.5C10 13.1914 9.44141 13.75 8.75 13.75H7.5C6.80859 13.75 6.25 13.1914 6.25 12.5C5.55859 12.5 5 11.9414 5 11.25V2.5C5 1.80859 5.55859 1.25 6.25 1.25ZM1.25 17.5H12.5C15.2617 17.5 17.5 15.2617 17.5 12.5C17.5 9.73828 15.2617 7.5 12.5 7.5V5C16.6406 5 20 8.35938 20 12.5C20 14.4219 19.2773 16.1719 18.0898 17.5H18.75C19.4414 17.5 20 18.0586 20 18.75C20 19.4414 19.4414 20 18.75 20H12.5H1.25C0.558594 20 0 19.4414 0 18.75C0 18.0586 0.558594 17.5 1.25 17.5ZM4.375 15H11.875C12.2188 15 12.5 15.2812 12.5 15.625C12.5 15.9688 12.2188 16.25 11.875 16.25H4.375C4.03125 16.25 3.75 15.9688 3.75 15.625C3.75 15.2812 4.03125 15 4.375 15Z" fill="white"/>
</svg>
