<svg width="36" height="32" viewBox="0 0 36 32" fill="none" xmlns="http://www.w3.org/2000/svg">
<path d="M18 0C18.8789 0 19.6945 0.45 20.1656 1.19531L35.3953 25.4812C35.7891 26.107 36 26.8313 36 27.5695C36 29.7422 34.2422 31.5 32.0695 31.5H3.93047C1.75781 31.5 0 29.7422 0 27.5695C0 26.8313 0.210938 26.107 0.604688 25.4812L15.8344 1.19531C16.2984 0.45 17.1211 0 18 0ZM22.5703 13.5L18 6.21563L12.4383 15.082L13.725 16.7977C14.175 17.3953 15.075 17.3953 15.525 16.7977L17.325 14.4C17.7469 13.8305 18.4148 13.5 19.125 13.5H22.5703Z" fill="#194E20"/>
</svg>
