<svg width="16" height="16" viewBox="0 0 16 16" fill="none" xmlns="http://www.w3.org/2000/svg">
<path d="M7.26562 0.161719C7.73125 -0.0539062 8.26875 -0.0539062 8.73438 0.161719L15.5656 3.31797C15.8312 3.43984 16 3.70547 16 3.99922C16 4.29297 15.8312 4.55859 15.5656 4.68047L8.73438 7.83672C8.26875 8.05234 7.73125 8.05234 7.26562 7.83672L0.434375 4.68047C0.16875 4.55547 0 4.28984 0 3.99922C0 3.70859 0.16875 3.43984 0.434375 3.31797L7.26562 0.161719ZM13.9031 6.54922L15.5656 7.31797C15.8312 7.43984 16 7.70547 16 7.99922C16 8.29297 15.8312 8.55859 15.5656 8.68047L8.73438 11.8367C8.26875 12.0523 7.73125 12.0523 7.26562 11.8367L0.434375 8.68047C0.16875 8.55547 0 8.28984 0 7.99922C0 7.70859 0.16875 7.43984 0.434375 7.31797L2.09687 6.54922L6.84688 8.74297C7.57812 9.08047 8.42188 9.08047 9.15312 8.74297L13.9031 6.54922ZM9.15312 12.743L13.9031 10.5492L15.5656 11.318C15.8312 11.4398 16 11.7055 16 11.9992C16 12.293 15.8312 12.5586 15.5656 12.6805L8.73438 15.8367C8.26875 16.0523 7.73125 16.0523 7.26562 15.8367L0.434375 12.6805C0.16875 12.5555 0 12.2898 0 11.9992C0 11.7086 0.16875 11.4398 0.434375 11.318L2.09687 10.5492L6.84688 12.743C7.57812 13.0805 8.42188 13.0805 9.15312 12.743Z" fill="#194E20"/>
</svg>
