<svg width="34" height="36" viewBox="0 0 34 36" fill="none" xmlns="http://www.w3.org/2000/svg">
<path d="M17.8172 0.203906C17.5219 0.0703125 17.2055 0 16.875 0C16.5446 0 16.2282 0.0703125 15.9328 0.203906L2.693 5.82188C1.14613 6.47578 -0.00699927 8.00156 3.19816e-05 9.84375C0.0351882 16.8188 2.90394 29.5805 15.0188 35.3813C16.193 35.9438 17.5571 35.9438 18.7313 35.3813C30.8461 29.5805 33.7149 16.8188 33.75 9.84375C33.7571 8.00156 32.6039 6.47578 31.0571 5.82188L17.8172 0.203906ZM9.00003 15.5602C9.00003 13.1836 10.9266 11.25 13.3102 11.25C14.4493 11.25 15.5461 11.707 16.3547 12.5086L16.875 13.0289L17.3953 12.5086C18.2039 11.7 19.3008 11.25 20.4399 11.25C22.8164 11.25 24.75 13.1766 24.75 15.5602C24.75 16.6992 24.293 17.7961 23.4914 18.6047L17.6766 24.4195C17.2407 24.8555 16.5235 24.8555 16.0875 24.4195L10.2727 18.6047C9.4641 17.7961 9.01409 16.6992 9.01409 15.5602H9.00003Z" fill="white"/>
</svg>
