<svg width="16" height="16" viewBox="0 0 16 16" fill="none" xmlns="http://www.w3.org/2000/svg">
<path d="M15.7805 1.27852C16.0742 0.984767 16.0742 0.509767 15.7805 0.219142C15.4867 -0.0714828 15.0117 -0.0746078 14.7211 0.219142L11.968 2.96602C11.6742 3.25977 11.6742 3.73477 11.968 4.02539C12.2617 4.31602 12.7367 4.31914 13.0273 4.02539L15.7773 1.27539L15.7805 1.27852ZM9.54609 0.850392C9.35234 0.656642 9.03359 0.656642 8.83984 0.850392L8.48359 1.20352C7.31172 2.37539 7.31172 4.27539 8.48359 5.44727L8.80859 5.77227L7.85547 6.72539C7.74922 5.87227 7.37109 5.04414 6.71484 4.38789L6.36172 4.03477C6.16797 3.84102 5.84922 3.84102 5.65547 4.03477L5.30234 4.38789C4.13047 5.55977 4.13047 7.45977 5.30234 8.63164L5.62734 8.95664L4.67422 9.90977C4.56797 9.05664 4.18984 8.22852 3.53359 7.57227L3.18047 7.21602C2.98672 7.02227 2.66797 7.02227 2.47422 7.21602L2.12109 7.56914C0.949219 8.74102 0.949219 10.641 2.12109 11.8129L2.44609 12.1379L0.292969 14.291C-0.0976562 14.6816 -0.0976562 15.316 0.292969 15.7066C0.683594 16.0973 1.31797 16.0973 1.70859 15.7066L3.86172 13.5535L4.24297 13.9348C5.41484 15.1066 7.31484 15.1066 8.48672 13.9348L8.83984 13.5816C9.03359 13.3879 9.03359 13.0691 8.83984 12.8754L8.48672 12.5223C7.80547 11.841 6.93672 11.4566 6.04609 11.3691L7.04297 10.3723L7.42422 10.7535C8.59609 11.9254 10.4961 11.9254 11.668 10.7535L12.0211 10.4004C12.2148 10.2066 12.2148 9.88789 12.0211 9.69414L11.668 9.34102C10.9867 8.65977 10.118 8.27539 9.22734 8.18789L10.2242 7.19102L10.6055 7.57227C11.7773 8.74414 13.6773 8.74414 14.8492 7.57227L15.2023 7.21602C15.3961 7.02227 15.3961 6.70352 15.2023 6.50977L14.8492 6.15352C14.6867 5.99102 14.518 5.84727 14.3367 5.71914L15.7805 4.27852C16.0742 3.98477 16.0742 3.50977 15.7805 3.21914C15.4867 2.92852 15.0117 2.92539 14.7211 3.21914L12.8648 5.07539C12.2211 4.93789 11.5523 4.95977 10.918 5.14102C11.1086 4.47539 11.1242 3.77227 10.9617 3.10039L12.7805 1.27852C13.0742 0.984767 13.0742 0.509767 12.7805 0.219142C12.4867 -0.0714828 12.0117 -0.0746078 11.7211 0.219142L10.2836 1.65039C10.168 1.49414 10.0398 1.34414 9.89609 1.20352L9.54609 0.850392Z" fill="#194E20"/>
</svg>
