<svg width="23" height="30" viewBox="0 0 23 30" fill="none" xmlns="http://www.w3.org/2000/svg">
<g clip-path="url(#clip0_34_454)">
<path d="M12.5742 2.42578C11.8418 1.69336 10.6523 1.69336 9.91992 2.42578L0.544922 11.8008C-0.1875 12.5332 -0.1875 13.7227 0.544922 14.4551C1.27734 15.1875 2.4668 15.1875 3.19922 14.4551L9.375 8.27344V26.25C9.375 27.2871 10.2129 28.125 11.25 28.125C12.2871 28.125 13.125 27.2871 13.125 26.25V8.27344L19.3008 14.4492C20.0332 15.1816 21.2227 15.1816 21.9551 14.4492C22.6875 13.7168 22.6875 12.5273 21.9551 11.7949L12.5801 2.41992L12.5742 2.42578Z" fill="white"/>
</g>
<defs>
<clipPath id="clip0_34_454">
<path d="M0 0H22.5V30H0V0Z" fill="white"/>
</clipPath>
</defs>
</svg>
