<svg width="30" height="30" viewBox="0 0 30 30" fill="none" xmlns="http://www.w3.org/2000/svg">
<g clip-path="url(#clip0_34_462)">
<path d="M15 0C15.2696 0 15.5391 0.0585938 15.7852 0.169922L26.8184 4.85156C28.1074 5.39648 29.0684 6.66797 29.0625 8.20312C29.0332 14.0156 26.6426 24.6504 16.5469 29.4844C15.5684 29.9531 14.4317 29.9531 13.4532 29.4844C3.35745 24.6504 0.966824 14.0156 0.937527 8.20312C0.931667 6.66797 1.8926 5.39648 3.18167 4.85156L14.2207 0.169922C14.461 0.0585938 14.7305 0 15 0ZM15 3.91406V26.0625C23.086 22.1484 25.2598 13.4824 25.3125 8.28516L15 3.91406Z" fill="white"/>
</g>
<defs>
<clipPath id="clip0_34_462">
<path d="M0 0H30V30H0V0Z" fill="white"/>
</clipPath>
</defs>
</svg>
