<svg width="26" height="24" viewBox="0 0 26 24" fill="none" xmlns="http://www.w3.org/2000/svg">
<path d="M24.9201 4.86563L22.2342 0.614063C21.9951 0.234375 21.5685 0 21.1139 0H4.38886C3.93417 0 3.50761 0.234375 3.26855 0.614063L0.577924 4.86563C-0.809576 7.05938 0.418549 10.1109 3.01074 10.4625C3.19824 10.4859 3.39042 10.5 3.57792 10.5C4.80136 10.5 5.88886 9.96562 6.63417 9.14062C7.37949 9.96562 8.46699 10.5 9.69042 10.5C10.9139 10.5 12.0014 9.96562 12.7467 9.14062C13.492 9.96562 14.5795 10.5 15.8029 10.5C17.031 10.5 18.1139 9.96562 18.8592 9.14062C19.6092 9.96562 20.692 10.5 21.9154 10.5C22.1076 10.5 22.2951 10.4859 22.4826 10.4625C25.0842 10.1156 26.317 7.06406 24.9248 4.86563H24.9201ZM22.6748 11.9484H22.6701C22.4217 11.9812 22.1685 12 21.9107 12C21.3295 12 20.7717 11.9109 20.2514 11.7516V18H5.25136V11.7469C4.72636 11.9109 4.16386 12 3.58261 12C3.3248 12 3.06699 11.9812 2.81855 11.9484H2.81386C2.62167 11.9203 2.43417 11.8875 2.25136 11.8406V18V21C2.25136 22.6547 3.59667 24 5.25136 24H20.2514C21.906 24 23.2514 22.6547 23.2514 21V18V11.8406C23.0639 11.8875 22.8764 11.925 22.6748 11.9484Z" fill="white"/>
</svg>
