<svg width="27" height="24" viewBox="0 0 27 24" fill="none" xmlns="http://www.w3.org/2000/svg">
<path d="M6.9375 3.59062C6.9375 1.60781 8.54531 0 10.5281 0C11.4797 0 12.3938 0.379687 13.0641 1.05L13.5 1.48594L13.9359 1.05C14.6062 0.379687 15.5203 0 16.4719 0C18.4547 0 20.0625 1.60781 20.0625 3.59062C20.0625 4.54219 19.6828 5.45625 19.0125 6.12656L14.1609 10.9734C13.7953 11.3391 13.2 11.3391 12.8344 10.9734L7.9875 6.12656C7.31719 5.45625 6.9375 4.54219 6.9375 3.59062ZM26.6344 15.7641C27.2484 16.5984 27.0703 17.7703 26.2359 18.3844L20.3016 22.7578C19.2047 23.5641 17.8828 24 16.5187 24H9H1.5C0.670312 24 0 23.3297 0 22.5V19.5C0 18.6703 0.670312 18 1.5 18H3.225L5.32969 16.3125C6.39375 15.4594 7.71562 15 9.07969 15H12.75H13.5H16.5C17.3297 15 18 15.6703 18 16.5C18 17.3297 17.3297 18 16.5 18H13.5H12.75C12.3375 18 12 18.3375 12 18.75C12 19.1625 12.3375 19.5 12.75 19.5H18.4031L24.0141 15.3656C24.8484 14.7516 26.0203 14.9297 26.6344 15.7641ZM9.075 18H9.03281C9.04688 18 9.06094 18 9.075 18Z" fill="white"/>
</svg>
