<svg width="18" height="20" viewBox="0 0 18 20" fill="none" xmlns="http://www.w3.org/2000/svg">
<path d="M11.25 0H6.25H5C4.30859 0 3.75 0.558594 3.75 1.25C3.75 1.94141 4.30859 2.5 5 2.5V7.6875C5 8.14844 4.87109 8.60547 4.62891 8.99609L0.402344 15.8672C0.140625 16.2969 0 16.7852 0 17.2891C0 18.7852 1.21484 20 2.71094 20H14.7891C16.2852 20 17.5 18.7852 17.5 17.2891C17.5 16.7891 17.3594 16.2969 17.0977 15.8672L12.8711 9C12.6289 8.60547 12.5 8.15234 12.5 7.69141V2.5C13.1914 2.5 13.75 1.94141 13.75 1.25C13.75 0.558594 13.1914 0 12.5 0H11.25ZM7.5 7.6875V2.5H10V7.6875C10 8.61328 10.2578 9.51953 10.7422 10.3086L12.0898 12.5H5.41016L6.75781 10.3086C7.24219 9.51953 7.5 8.61328 7.5 7.6875Z" fill="white"/>
</svg>
